SplineFontDB: 3.2
FontName: BaskervilleNovus-Roman
FullName: Baskerville Novus Roman
FamilyName: Baskerville Novus
Weight: Regular
Copyright: Copyright (c) 2022, Jeff Johnson
Version: 0.1
ItalicAngle: 0
UnderlinePosition: -125
UnderlineWidth: 50
Ascent: 760
Descent: 290
InvalidEm: 0
LayerCount: 2
Layer: 0 1 "Back" 1
Layer: 1 1 "Fore" 0
XUID: [1021 141 -2013518871 3968982]
FSType: 0
OS2Version: 0
OS2_WeightWidthSlopeOnly: 0
OS2_UseTypoMetrics: 1
CreationTime: 1651971928
ModificationTime: 1652888686
PfmFamily: 17
TTFWeight: 400
TTFWidth: 5
LineGap: 90
VLineGap: 0
OS2TypoAscent: 0
OS2TypoAOffset: 1
OS2TypoDescent: 0
OS2TypoDOffset: 1
OS2TypoLinegap: 90
OS2WinAscent: 0
OS2WinAOffset: 1
OS2WinDescent: 0
OS2WinDOffset: 1
HheadAscent: 0
HheadAOffset: 1
HheadDescent: 0
HheadDOffset: 1
OS2FamilyClass: 512
OS2Vendor: 'PfEd'
OS2UnicodeRanges: 000003ff.00000000.00000000.00000000
MarkAttachClasses: 1
DEI: 91125
ShortTable: maxp 16
  0
  0
  0
  0
  0
  0
  0
  2
  1
  2
  22
  0
  256
  0
  0
  0
EndShort
TtTable: prep
PUSHW_1
 511
SCANCTRL
PUSHB_1
 1
SCANTYPE
SVTCA[y-axis]
MPPEM
PUSHB_1
 8
LT
IF
PUSHB_2
 1
 1
INSTCTRL
EIF
PUSHB_2
 70
 6
CALL
IF
POP
PUSHB_1
 16
EIF
MPPEM
PUSHB_1
 20
GT
IF
POP
PUSHB_1
 128
EIF
SCVTCI
PUSHB_1
 6
CALL
NOT
IF
SVTCA[y-axis]
PUSHB_1
 5
DUP
RCVT
PUSHB_1
 3
CALL
WCVTP
SVTCA[x-axis]
PUSHB_1
 6
DUP
RCVT
PUSHB_1
 3
CALL
WCVTP
EIF
PUSHB_1
 20
CALL
EndTTInstrs
TtTable: fpgm
PUSHB_1
 0
FDEF
PUSHB_1
 0
SZP0
MPPEM
PUSHB_1
 42
LT
IF
PUSHB_1
 74
SROUND
EIF
PUSHB_1
 0
SWAP
MIAP[rnd]
RTG
PUSHB_1
 6
CALL
IF
RTDG
EIF
MPPEM
PUSHB_1
 42
LT
IF
RDTG
EIF
DUP
MDRP[rp0,rnd,grey]
PUSHB_1
 1
SZP0
MDAP[no-rnd]
RTG
ENDF
PUSHB_1
 1
FDEF
DUP
MDRP[rp0,min,white]
PUSHB_1
 12
CALL
ENDF
PUSHB_1
 2
FDEF
MPPEM
GT
IF
RCVT
SWAP
EIF
POP
ENDF
PUSHB_1
 3
FDEF
ROUND[Black]
RTG
DUP
PUSHB_1
 64
LT
IF
POP
PUSHB_1
 64
EIF
ENDF
PUSHB_1
 4
FDEF
PUSHB_1
 6
CALL
IF
POP
SWAP
POP
ROFF
IF
MDRP[rp0,min,rnd,black]
ELSE
MDRP[min,rnd,black]
EIF
ELSE
MPPEM
GT
IF
IF
MIRP[rp0,min,rnd,black]
ELSE

StartChar: n
Encoding: 110 110 0
GlifName: n
Width: 629
VWidth: 0
Flags: W
HStem: -2 36<23.157 54 201.377 263.843 365.157 396 543.377 605.843> 432 46<254.627 400.457>
VStem: 99 90<49.3877 365.069> 441 90<49.3877 388.784>
LayerCount: 2
Fore
SplineSet
441 283 m 6,0,1
 441 362 441 362 413 397 c 132,-1,2
 385 432 385 432 339 432 c 4,3,4
 256 432 256 432 222.5 383.5 c 132,-1,5
 189 335 189 335 189 238 c 6,6,-1
 189 125 l 6,7,8
 189 61 189 61 201 49 c 4,9,10
 213 36 213 36 233 35 c 6,11,-1
 251 34 l 6,12,13
 259 34 259 34 264 29 c 132,-1,14
 269 24 269 24 269 16 c 132,-1,15
 269 8 269 8 264 3 c 132,-1,16
 259 -2 259 -2 251 -2 c 4,17,18
 242 -2 242 -2 215 -1 c 132,-1,19
 188 0 188 0 152 0 c 6,20,-1
 135 0 l 6,21,22
 99 0 99 0 72 -1 c 132,-1,23
 45 -2 45 -2 36 -2 c 4,24,25
 28 -2 28 -2 23 3 c 132,-1,26
 18 8 18 8 18 16 c 132,-1,27
 18 24 18 24 23 29 c 132,-1,28
 28 34 28 34 36 34 c 6,29,-1
 54 35 l 6,30,31
 72 36 72 36 86 49 c 4,32,33
 99 61 99 61 99 125 c 6,34,-1
 99 359 l 6,35,36
 99 381 99 381 83 397 c 132,-1,37
 67 413 67 413 40 413 c 4,38,39
 31 413 31 413 27 418 c 132,-1,40
 23 423 23 423 23 431 c 132,-1,41
 23 439 23 439 27 443.5 c 132,-1,42
 31 448 31 448 38 449 c 4,43,44
 76 454 76 454 115 468 c 4,45,46
 149 480 149 480 158 480 c 4,47,48
 166 480 166 480 170 476 c 4,49,50
 175 471 175 471 177 462 c 4,51,52
 181 445 181 445 183 428 c 4,53,54
 185 410 185 410 185 388 c 5,55,56
 217 439 217 439 260 458 c 4,57,58
 304 478 304 478 361 478 c 4,59,60
 444 478 444 478 487.5 439 c 132,-1,61
 531 400 531 400 531 308 c 6,62,-1
 531 125 l 6,63,64
 531 61 531 61 543 49 c 4,65,66
 555 36 555 36 575 35 c 6,67,-1
 593 34 l 6,68,69
 601 34 601 34 606 29 c 132,-1,70
 611 24 611 24 611 16 c 132,-1,71
 611 8 611 8 606 3 c 132,-1,72
 601 -2 601 -2 593 -2 c 4,73,74
 584 -2 584 -2 557 -1 c 132,-1,75
 530 0 530 0 494 0 c 6,76,-1
 477 0 l 6,77,78
 441 0 441 0 414 -1 c 132,-1,79
 387 -2 387 -2 378 -2 c 4,80,81
 370 -2 370 -2 365 3 c 132,-1,82
 360 8 360 8 360 16 c 132,-1,83
 360 24 360 24 365 29 c 132,-1,84
 370 34 370 34 378 34 c 6,85,-1
 396 35 l 6,86,87
 414 36 414 36 428 49 c 4,88,89
 441 61 441 61 441 125 c 6,90,-1
 441 283 l 6,0,1
EndSplineSet
EndChar

StartChar: m
Encoding: 109 109 1
GlifName: m
Width: 935
VWidth: 0
Flags: W
HStem: -2 36<23.157 54 201.377 263.843 347.157 378 525.377 587.843 671.157 702 849.377 911.843> 432 46<256.25 387.855 579.635 710.911>
VStem: 99 90<49.3877 359.96> 423 90<49.4185 361.301> 747 90<49.3877 394.627>
CounterMasks: 1 38
LayerCount: 2
Fore
SplineSet
747 283 m 2,0,1
 747 362 747 362 722.5 397 c 128,-1,2
 698 432 698 432 648 432 c 0,3,4
 585 432 585 432 549 383.5 c 128,-1,5
 513 335 513 335 513 238 c 2,6,-1
 513 125 l 2,7,8
 513 61 513 61 525 49 c 0,9,10
 537 36 537 36 557 35 c 2,11,-1
 575 34 l 2,12,13
 583 34 583 34 588 29 c 128,-1,14
 593 24 593 24 593 16 c 128,-1,15
 593 8 593 8 588 3 c 128,-1,16
 583 -2 583 -2 575 -2 c 0,17,18
 566 -2 566 -2 539 -1 c 128,-1,19
 512 0 512 0 476 0 c 2,20,-1
 459 0 l 2,21,22
 423 0 423 0 396 -1 c 128,-1,23
 369 -2 369 -2 360 -2 c 0,24,25
 352 -2 352 -2 347 3 c 128,-1,26
 342 8 342 8 342 16 c 0,27,28
 342 23 342 23 348 29 c 0,29,30
 353 34 353 34 360 34 c 2,31,-1
 378 35 l 2,32,33
 396 36 396 36 409.5 49 c 128,-1,34
 423 62 423 62 423 125 c 2,35,-1
 423 283 l 2,36,37
 423 362 423 362 399 397 c 128,-1,38
 375 432 375 432 325 432 c 0,39,40
 262 432 262 432 225.5 383.5 c 128,-1,41
 189 335 189 335 189 238 c 2,42,-1
 189 125 l 2,43,44
 189 61 189 61 201 49 c 0,45,46
 213 36 213 36 233 35 c 2,47,-1
 251 34 l 2,48,49
 259 34 259 34 264 29 c 128,-1,50
 269 24 269 24 269 16 c 128,-1,51
 269 8 269 8 264 3 c 128,-1,52
 259 -2 259 -2 251 -2 c 0,53,54
 242 -2 242 -2 215 -1 c 128,-1,55
 188 0 188 0 152 0 c 2,56,-1
 135 0 l 2,57,58
 99 0 99 0 72 -1 c 128,-1,59
 45 -2 45 -2 36 -2 c 0,60,61
 28 -2 28 -2 23 3 c 128,-1,62
 18 8 18 8 18 16 c 128,-1,63
 18 24 18 24 23 29 c 128,-1,64
 28 34 28 34 36 34 c 2,65,-1
 54 35 l 2,66,67
 72 36 72 36 86 49 c 0,68,69
 99 61 99 61 99 125 c 2,70,-1
 99 359 l 6,71,72
 99 381 99 381 83 397 c 132,-1,73
 67 413 67 413 40 413 c 4,74,75
 31 413 31 413 27 418 c 132,-1,76
 23 423 23 423 23 431 c 132,-1,77
 23 439 23 439 27 443.5 c 132,-1,78
 31 448 31 448 38 449 c 4,79,80
 76 454 76 454 115 468 c 4,81,82
 148 480 148 480 158 480 c 4,83,84
 166 480 166 480 170 476 c 4,85,86
 175 471 175 471 177 462 c 4,87,88
 181 445 181 445 183 428 c 4,89,90
 185 410 185 410 185 388 c 5,91,92
 217 439 217 439 263 458.5 c 128,-1,93
 309 478 309 478 352 478 c 0,94,95
 416 478 416 478 452 459 c 128,-1,96
 488 440 488 440 509 388 c 1,97,98
 541 439 541 439 586.5 458.5 c 128,-1,99
 632 478 632 478 675 478 c 0,100,101
 761 478 761 478 799 442 c 128,-1,102
 837 406 837 406 837 308 c 2,103,-1
 837 125 l 2,104,105
 837 61 837 61 849 49 c 0,106,107
 861 36 861 36 881 35 c 2,108,-1
 899 34 l 2,109,110
 907 34 907 34 912 29 c 128,-1,111
 917 24 917 24 917 16 c 128,-1,112
 917 8 917 8 912 3 c 128,-1,113
 907 -2 907 -2 899 -2 c 0,114,115
 890 -2 890 -2 863 -1 c 128,-1,116
 836 0 836 0 800 0 c 2,117,-1
 783 0 l 2,118,119
 747 0 747 0 720 -1 c 128,-1,120
 693 -2 693 -2 684 -2 c 0,121,122
 676 -2 676 -2 671 3 c 128,-1,123
 666 8 666 8 666 16 c 128,-1,124
 666 24 666 24 671 29 c 128,-1,125
 676 34 676 34 684 34 c 2,126,-1
 702 35 l 2,127,128
 720 36 720 36 734 49 c 0,129,130
 747 61 747 61 747 125 c 2,131,-1
 747 283 l 2,0,1
EndSplineSet
EndChar

StartChar: r
Encoding: 114 114 2
GlifName: r
Width: 458
VWidth: 0
Flags: W
HStem: -2 36<41.157 72 219.377 281.843> 442 36<281.941 383.5>
VStem: 117 90<49.3877 368.983>
LayerCount: 2
Fore
SplineSet
395 388 m 256,0,1
 380 388 380 388 370.5 395 c 128,-1,2
 361 402 361 402 355 416 c 0,3,4
 344 442 344 442 323 442 c 260,5,6
 279 442 279 442 237 381 c 0,7,8
 207 337 207 337 207 238 c 2,9,-1
 207 125 l 2,10,11
 207 61 207 61 219 49 c 0,12,13
 231 36 231 36 251 35 c 2,14,-1
 269 34 l 2,15,16
 277 34 277 34 282 29 c 128,-1,17
 287 24 287 24 287 16 c 128,-1,18
 287 8 287 8 282 3 c 128,-1,19
 277 -2 277 -2 269 -2 c 0,20,21
 260 -2 260 -2 233 -1 c 128,-1,22
 206 0 206 0 170 0 c 2,23,-1
 153 0 l 2,24,25
 117 0 117 0 90 -1 c 128,-1,26
 63 -2 63 -2 54 -2 c 0,27,28
 46 -2 46 -2 41 3 c 128,-1,29
 36 8 36 8 36 16 c 128,-1,30
 36 24 36 24 41 29 c 128,-1,31
 46 34 46 34 54 34 c 2,32,-1
 72 35 l 2,33,34
 90 36 90 36 104 49 c 256,35,36
 117 61 117 61 117 125 c 2,37,-1
 117 359 l 2,38,39
 117 381 117 381 101 397 c 128,-1,40
 85 413 85 413 58 413 c 0,41,42
 49 413 49 413 45 418 c 128,-1,43
 41 423 41 423 41 431 c 256,44,45
 41 439 41 439 45 443.5 c 128,-1,46
 49 448 49 448 56 449 c 0,47,48
 94 454 94 454 133 468 c 0,49,50
 167 480 167 480 176 480 c 0,51,52
 184 480 184 480 188 476 c 0,53,54
 193 471 193 471 195 462 c 0,55,56
 199 445 199 445 201 428 c 0,57,58
 203 410 203 410 203 388 c 1,59,60
 231 433 231 433 272.5 455.5 c 128,-1,61
 314 478 314 478 365 478 c 0,62,63
 402 478 402 478 421 465 c 128,-1,64
 440 452 440 452 440 433 c 256,65,66
 440 411 440 411 428 400 c 0,67,68
 415 388 415 388 395 388 c 256,0,1
EndSplineSet
EndChar

StartChar: dollar
Encoding: 36 36 3
GlifName: dollar
Width: 558
VWidth: 0
Flags: W
HStem: 0 36<152.765 261 298 375.391> 669 36<185.083 262 298 396.176>
VStem: 36 91<62.3654 152.593> 58 68<502.002 609.825> 262 36<-159 0 37 321 437 669 705 796> 426 80<565.891 641.687> 452 70<100.194 238.55>
DStem2: 213 460 212 361 0.906665 -0.421851<-96.604 54.1292 93.9406 95.8924 135.704 294.828>
LayerCount: 2
Fore
SplineSet
212 361 m 2,0,1
 127 400 127 400 92 436 c 0,2,3
 58 471 58 471 58 530 c 0,4,5
 58 605 58 605 123 655 c 0,6,7
 182 700 182 700 262 705 c 1,8,-1
 262 787 l 2,9,10
 262 796 262 796 271 796 c 2,11,-1
 289 796 l 2,12,13
 298 796 298 796 298 787 c 2,14,-1
 298 705 l 1,15,16
 391 702 391 702 446 671 c 0,17,18
 506 637 506 637 506 583 c 0,19,20
 506 564 506 564 493 551 c 128,-1,21
 480 538 480 538 461 538 c 128,-1,22
 442 538 442 538 429 551 c 128,-1,23
 416 564 416 564 416 580 c 0,24,25
 416 592 416 592 421 601 c 128,-1,26
 426 610 426 610 426 620 c 0,27,28
 426 640 426 640 397 655 c 0,29,30
 371 668 371 668 298 669 c 1,31,-1
 298 420 l 1,32,-1
 357 393 l 2,33,34
 451 350 451 350 487 304 c 0,35,36
 522 259 522 259 522 195 c 0,37,38
 522 106 522 106 460 53 c 0,39,40
 403 4 403 4 298 0 c 1,41,-1
 298 -150 l 2,42,43
 298 -159 298 -159 289 -159 c 2,44,-1
 270 -159 l 2,45,46
 261 -159 261 -159 261 -150 c 2,47,-1
 261 0 l 1,48,49
 153 2 153 2 94.5 35 c 128,-1,50
 36 68 36 68 36 119 c 0,51,52
 36 136 36 136 49 150 c 128,-1,53
 62 164 62 164 81 164 c 0,54,55
 101 164 101 164 113 153 c 0,56,57
 127 140 127 140 127 122 c 0,58,59
 127 112 127 112 126 104 c 128,-1,60
 125 96 125 96 125 88 c 0,61,62
 125 62 125 62 164 49.5 c 128,-1,63
 203 37 203 37 261 36 c 1,64,-1
 262 338 l 1,65,-1
 212 361 l 2,0,1
298 37 m 1,66,67
 370 40 370 40 408 75 c 0,68,69
 452 116 452 116 452 170 c 0,70,71
 452 249 452 249 356 294 c 2,72,-1
 298 321 l 1,73,-1
 298 37 l 1,66,67
262 669 m 1,74,75
 192 665 192 665 161 635 c 0,76,77
 126 601 126 601 126 558 c 0,78,79
 126 525 126 525 149 502 c 128,-1,80
 172 479 172 479 213 460 c 2,81,-1
 262 437 l 1,82,-1
 262 669 l 1,74,75
EndSplineSet
EndChar

StartChar: l
Encoding: 108 108 4
GlifName: l
Width: 323
VWidth: 0
Flags: W
HStem: -2 36<41.157 72 219.377 281.843> 671 36<46.1567 100.497> 703 20G<185.5 192.5>
VStem: 117 90<49.3877 654.499>
LayerCount: 2
Fore
SplineSet
117 617 m 6,0,1
 117 639 117 639 101 655 c 132,-1,2
 85 671 85 671 58 671 c 4,3,4
 50 671 50 671 45.5 676 c 132,-1,5
 41 681 41 681 41 689 c 260,6,7
 41 697 41 697 46 702 c 132,-1,8
 51 707 51 707 58 707 c 4,9,10
 66 707 66 707 80 708 c 4,11,12
 91 708 91 708 124 712 c 260,13,14
 161 716 161 716 169 719 c 4,15,16
 182 723 182 723 189 723 c 260,17,18
 196 723 196 723 202 718 c 4,19,20
 207 712 207 712 207 705 c 6,21,-1
 207 125 l 6,22,23
 207 61 207 61 219 49 c 4,24,25
 231 36 231 36 251 35 c 6,26,-1
 269 34 l 6,27,28
 277 34 277 34 282 29 c 132,-1,29
 287 24 287 24 287 16 c 132,-1,30
 287 8 287 8 282 3 c 132,-1,31
 277 -2 277 -2 269 -2 c 4,32,33
 260 -2 260 -2 233 -1 c 132,-1,34
 206 0 206 0 170 0 c 6,35,-1
 153 0 l 6,36,37
 117 0 117 0 90 -1 c 132,-1,38
 63 -2 63 -2 54 -2 c 4,39,40
 46 -2 46 -2 41 3 c 132,-1,41
 36 8 36 8 36 16 c 132,-1,42
 36 24 36 24 41 29 c 132,-1,43
 46 34 46 34 54 34 c 6,44,-1
 72 35 l 6,45,46
 90 36 90 36 104 49 c 4,47,48
 117 61 117 61 117 125 c 6,49,-1
 117 617 l 6,0,1
EndSplineSet
EndChar

StartChar: i
Encoding: 105 105 5
GlifName: i
Width: 323
VWidth: 0
Flags: W
HStem: -2 36<41.157 72 219.377 281.843> 426 36<46.1567 100.497> 458 20G<185.5 192.5> 597 108<106.16 193.84>
VStem: 96 108<607.16 694.84> 117 90<49.3877 409.499>
LayerCount: 2
Fore
SplineSet
96 651 m 256,0,1
 96 673 96 673 112 689 c 128,-1,2
 128 705 128 705 150 705 c 256,3,4
 172 705 172 705 188 689 c 128,-1,5
 204 673 204 673 204 651 c 256,6,7
 204 629 204 629 188 613 c 128,-1,8
 172 597 172 597 150 597 c 256,9,10
 128 597 128 597 112 613 c 128,-1,11
 96 629 96 629 96 651 c 256,0,1
117 372 m 2,12,13
 117 394 117 394 101 410 c 128,-1,14
 85 426 85 426 58 426 c 0,15,16
 50 426 50 426 45.5 431 c 128,-1,17
 41 436 41 436 41 444 c 256,18,19
 41 452 41 452 46 457 c 128,-1,20
 51 462 51 462 58 462 c 0,21,22
 66 462 66 462 80 463 c 0,23,24
 91 463 91 463 124 467 c 256,25,26
 161 471 161 471 169 474 c 0,27,28
 182 478 182 478 189 478 c 256,29,30
 196 478 196 478 202 473 c 0,31,32
 207 467 207 467 207 460 c 2,33,-1
 207 125 l 2,34,35
 207 61 207 61 219 49 c 0,36,37
 231 36 231 36 251 35 c 2,38,-1
 269 34 l 2,39,40
 277 34 277 34 282 29 c 128,-1,41
 287 24 287 24 287 16 c 128,-1,42
 287 8 287 8 282 3 c 128,-1,43
 277 -2 277 -2 269 -2 c 0,44,45
 260 -2 260 -2 233 -1 c 128,-1,46
 206 0 206 0 170 0 c 2,47,-1
 153 0 l 2,48,49
 117 0 117 0 90 -1 c 128,-1,50
 63 -2 63 -2 54 -2 c 0,51,52
 46 -2 46 -2 41 3 c 128,-1,53
 36 8 36 8 36 16 c 128,-1,54
 36 24 36 24 41 29 c 128,-1,55
 46 34 46 34 54 34 c 2,56,-1
 72 35 l 2,57,58
 90 36 90 36 104 49 c 0,59,60
 117 61 117 61 117 125 c 2,61,-1
 117 372 l 2,12,13
EndSplineSet
EndChar

StartChar: h
Encoding: 104 104 6
GlifName: h
Width: 629
VWidth: 0
Flags: W
HStem: -2 36<23.157 54 201.377 263.843 365.157 396 543.377 605.843> 432 46<254.404 400.457> 671 36<28.1567 82.4973> 703 20G<167.5 174.5>
VStem: 99 90<49.3877 365.395 394 654.499> 441 90<49.3877 388.784>
LayerCount: 2
Fore
SplineSet
441 283 m 6,0,1
 441 362 441 362 413 397 c 132,-1,2
 385 432 385 432 339 432 c 4,3,4
 256 432 256 432 222.5 383.5 c 132,-1,5
 189 335 189 335 189 238 c 6,6,-1
 189 125 l 6,7,8
 189 61 189 61 201 49 c 4,9,10
 213 36 213 36 233 35 c 6,11,-1
 251 34 l 6,12,13
 259 34 259 34 264 29 c 132,-1,14
 269 24 269 24 269 16 c 132,-1,15
 269 8 269 8 264 3 c 132,-1,16
 259 -2 259 -2 251 -2 c 4,17,18
 242 -2 242 -2 215 -1 c 132,-1,19
 188 0 188 0 152 0 c 6,20,-1
 135 0 l 6,21,22
 99 0 99 0 72 -1 c 132,-1,23
 45 -2 45 -2 36 -2 c 4,24,25
 28 -2 28 -2 23 3 c 132,-1,26
 18 8 18 8 18 16 c 132,-1,27
 18 24 18 24 23 29 c 132,-1,28
 28 34 28 34 36 34 c 6,29,-1
 54 35 l 6,30,31
 72 36 72 36 86 49 c 4,32,33
 99 61 99 61 99 125 c 6,34,-1
 99 617 l 6,35,36
 99 639 99 639 83 655 c 132,-1,37
 67 671 67 671 40 671 c 4,38,39
 32 671 32 671 27.5 676 c 132,-1,40
 23 681 23 681 23 689 c 132,-1,41
 23 697 23 697 28 702 c 132,-1,42
 33 707 33 707 40 707 c 4,43,44
 48 707 48 707 62 708 c 4,45,46
 73 708 73 708 106 712 c 4,47,48
 143 716 143 716 151 719 c 4,49,50
 164 723 164 723 171 723 c 132,-1,51
 178 723 178 723 184 718 c 4,52,53
 189 712 189 712 189 705 c 6,54,-1
 189 394 l 5,55,56
 220 440 220 440 262 459 c 260,57,58
 304 478 304 478 361 478 c 4,59,60
 444 478 444 478 487.5 439 c 132,-1,61
 531 400 531 400 531 308 c 6,62,-1
 531 125 l 6,63,64
 531 61 531 61 543 49 c 4,65,66
 555 36 555 36 575 35 c 6,67,-1
 593 34 l 6,68,69
 601 34 601 34 606 29 c 132,-1,70
 611 24 611 24 611 16 c 132,-1,71
 611 8 611 8 606 3 c 132,-1,72
 601 -2 601 -2 593 -2 c 4,73,74
 584 -2 584 -2 557 -1 c 132,-1,75
 530 0 530 0 494 0 c 6,76,-1
 477 0 l 6,77,78
 441 0 441 0 414 -1 c 132,-1,79
 387 -2 387 -2 378 -2 c 4,80,81
 370 -2 370 -2 365 3 c 132,-1,82
 360 8 360 8 360 16 c 132,-1,83
 360 24 360 24 365 29 c 132,-1,84
 370 34 370 34 378 34 c 6,85,-1
 396 35 l 6,86,87
 414 36 414 36 428 49 c 4,88,89
 441 61 441 61 441 125 c 6,90,-1
 441 283 l 6,0,1
EndSplineSet
EndChar

StartChar: j
Encoding: 106 106 7
GlifName: j
Width: 237
VWidth: 0
Flags: W
HStem: -290 46<-51.8844 62.4579> 426 36<40.1567 94.4973> 458 20G<179.5 186.5> 597 108<100.16 187.84>
VStem: 90 108<607.16 694.84> 111 90<-185.035 409.499>
LayerCount: 2
Back
SplineSet
-99 -181 m 4,0,1
 -84 -181 -84 -181 -75 -188 c 132,-1,2
 -66 -195 -66 -195 -53.5 -219.5 c 132,-1,3
 -41 -244 -41 -244 -5 -244 c 4,4,5
 46 -244 46 -244 78.5 -206.5 c 132,-1,6
 111 -169 111 -169 111 -56 c 6,7,-1
 111 372 l 6,8,9
 111 394 111 394 95 410 c 132,-1,10
 79 426 79 426 52 426 c 4,11,12
 44 426 44 426 39.5 431 c 132,-1,13
 35 436 35 436 35 444 c 132,-1,14
 35 452 35 452 40 457 c 132,-1,15
 45 462 45 462 52 462 c 4,16,17
 60 462 60 462 74 463 c 4,18,19
 85 463 85 463 118 467 c 4,20,21
 155 471 155 471 163 474 c 4,22,23
 176 478 176 478 183 478 c 132,-1,24
 190 478 190 478 196 473 c 4,25,26
 201 469 201 469 201 460 c 6,27,-1
 201 -56 l 262,28,29
 201 -174 201 -174 149 -232 c 132,-1,30
 97 -290 97 -290 6 -290 c 260,31,32
 -58 -290 -58 -290 -101 -273 c 132,-1,33
 -144 -256 -144 -256 -144 -226 c 4,34,35
 -144 -204 -144 -204 -132 -193 c 4,36,37
 -119 -181 -119 -181 -99 -181 c 4,0,1
EndSplineSet
Fore
SplineSet
90 651 m 256,0,1
 90 673 90 673 106 689 c 128,-1,2
 122 705 122 705 144 705 c 256,3,4
 166 705 166 705 182 689 c 128,-1,5
 198 673 198 673 198 651 c 256,6,7
 198 629 198 629 182 613 c 128,-1,8
 166 597 166 597 144 597 c 256,9,10
 122 597 122 597 106 613 c 128,-1,11
 90 629 90 629 90 651 c 256,0,1
-99 -181 m 0,12,13
 -84 -181 -84 -181 -75 -188 c 128,-1,14
 -66 -195 -66 -195 -53.5 -219.5 c 128,-1,15
 -41 -244 -41 -244 -5 -244 c 0,16,17
 46 -244 46 -244 78.5 -206.5 c 128,-1,18
 111 -169 111 -169 111 -56 c 2,19,-1
 111 372 l 2,20,21
 111 394 111 394 95 410 c 128,-1,22
 79 426 79 426 52 426 c 0,23,24
 44 426 44 426 39.5 431 c 128,-1,25
 35 436 35 436 35 444 c 128,-1,26
 35 452 35 452 40 457 c 128,-1,27
 45 462 45 462 52 462 c 0,28,29
 60 462 60 462 74 463 c 0,30,31
 85 463 85 463 118 467 c 0,32,33
 155 471 155 471 163 474 c 0,34,35
 176 478 176 478 183 478 c 128,-1,36
 190 478 190 478 196 473 c 0,37,38
 201 469 201 469 201 460 c 2,39,-1
 201 -56 l 258,40,41
 201 -174 201 -174 149 -232 c 128,-1,42
 97 -290 97 -290 6 -290 c 256,43,44
 -58 -290 -58 -290 -101 -273 c 128,-1,45
 -144 -256 -144 -256 -144 -226 c 0,46,47
 -144 -204 -144 -204 -132 -193 c 0,48,49
 -119 -181 -119 -181 -99 -181 c 0,12,13
EndSplineSet
EndChar

StartChar: asterisk
Encoding: 42 42 8
GlifName: asterisk
Width: 476
VWidth: 0
Flags: W
HStem: 363 94<49.408 119.846 356.154 426.592> 541 94<49.408 119.846 356.154 426.592> 705 20G<228.5 247.5>
VStem: 193 90<286.408 377.534 620.466 711.592> 229 18<389.38 483 515 608.62>
DStem2: 208 527 199 511 0.86514 -0.50153<-69.534 24.1863 55.8078 149.528> 199 487 208 471 0.86514 0.50153<-69.7722 23.9481 55.5696 149.29>
LayerCount: 2
Fore
SplineSet
199 511 m 2,0,1
 151 540 151 540 111 541 c 0,2,3
 36 543 36 543 36 591 c 0,4,5
 36 610 36 610 49 622.5 c 128,-1,6
 62 635 62 635 82 635 c 0,7,8
 109 635 109 635 138 588 c 0,9,10
 157 557 157 557 208 527 c 2,11,-1
 229 515 l 1,12,-1
 229 539 l 2,13,14
 229 598 229 598 211 630 c 128,-1,15
 193 662 193 662 193 680 c 0,16,17
 193 699 193 699 206 712 c 128,-1,18
 219 725 219 725 238 725 c 128,-1,19
 257 725 257 725 270 712 c 128,-1,20
 283 699 283 699 283 680 c 0,21,22
 283 662 283 662 265 630 c 128,-1,23
 247 598 247 598 247 539 c 2,24,-1
 247 515 l 1,25,-1
 268 527 l 2,26,27
 319 557 319 557 338 588 c 0,28,29
 367 635 367 635 394 635 c 0,30,31
 414 635 414 635 427 622.5 c 128,-1,32
 440 610 440 610 440 591 c 0,33,34
 440 543 440 543 365 541 c 0,35,36
 325 540 325 540 277 511 c 2,37,-1
 256 499 l 1,38,-1
 277 487 l 2,39,40
 325 458 325 458 365 457 c 0,41,42
 440 455 440 455 440 407 c 0,43,44
 440 388 440 388 427 375.5 c 128,-1,45
 414 363 414 363 394 363 c 0,46,47
 367 363 367 363 338 410 c 0,48,49
 319 441 319 441 268 471 c 2,50,-1
 247 483 l 1,51,-1
 247 459 l 2,52,53
 247 400 247 400 265 368 c 128,-1,54
 283 336 283 336 283 318 c 0,55,56
 283 299 283 299 270 286 c 128,-1,57
 257 273 257 273 238 273 c 128,-1,58
 219 273 219 273 206 286 c 128,-1,59
 193 299 193 299 193 318 c 0,60,61
 193 336 193 336 211 368 c 128,-1,62
 229 400 229 400 229 459 c 2,63,-1
 229 483 l 1,64,-1
 208 471 l 2,65,66
 157 441 157 441 138 410 c 0,67,68
 109 363 109 363 82 363 c 0,69,70
 62 363 62 363 49 375.5 c 128,-1,71
 36 388 36 388 36 407 c 0,72,73
 36 455 36 455 111 457 c 0,74,75
 151 458 151 458 199 487 c 2,76,-1
 220 499 l 1,77,-1
 199 511 l 2,0,1
EndSplineSet
EndChar

StartChar: o
Encoding: 111 111 9
GlifName: o
Width: 540
VWidth: 0
Flags: W
HStem: -18 36<199.784 340.216> 442 36<199.886 340.114>
VStem: 18 108<125.607 337.382> 414 108<119.071 331.951>
LayerCount: 2
Fore
SplineSet
446 404 m 132,-1,1
 522 330 522 330 522 230 c 260,2,3
 522 120 522 120 452 51 c 132,-1,4
 382 -18 382 -18 270 -18 c 260,5,6
 158 -18 158 -18 88 56 c 132,-1,7
 18 130 18 130 18 230 c 260,8,9
 18 340 18 340 94 409 c 132,-1,10
 170 478 170 478 270 478 c 260,11,0
 370 478 370 478 446 404 c 132,-1,1
270 442 m 260,12,13
 190 442 190 442 158 378.5 c 132,-1,14
 126 315 126 315 126 230 c 260,15,16
 126 145 126 145 158 81.5 c 132,-1,17
 190 18 190 18 270 18 c 260,18,19
 350 18 350 18 382 81.5 c 132,-1,20
 414 145 414 145 414 230 c 260,21,22
 414 315 414 315 382 378.5 c 132,-1,23
 350 442 350 442 270 442 c 260,12,13
EndSplineSet
EndChar

StartChar: parenleft
Encoding: 40 40 10
GlifName: parenleft
Width: 335
VWidth: 0
Flags: W
VStem: 54 90<137.013 438.987>
LayerCount: 2
Fore
SplineSet
54 288 m 4,0,1
 55 411 55 411 114 539 c 4,2,3
 163 645 163 645 268 750 c 4,4,5
 274 756 274 756 281 756 c 4,6,7
 289 756 289 756 294 751 c 132,-1,8
 299 746 299 746 299 739 c 4,9,10
 299 733 299 733 293 726 c 4,11,12
 234 654 234 654 189 545 c 132,-1,13
 144 436 144 436 144 288 c 260,14,15
 144 140 144 140 189 31 c 4,16,17
 237 -85 237 -85 293 -150 c 4,18,19
 299 -157 299 -157 299 -163 c 4,20,21
 299 -170 299 -170 294 -175 c 132,-1,22
 289 -180 289 -180 281 -180 c 4,23,24
 274 -180 274 -180 268 -174 c 4,25,26
 163 -69 163 -69 114 37 c 4,27,28
 55 165 55 165 54 288 c 4,0,1
EndSplineSet
EndChar

StartChar: zero
Encoding: 48 48 11
GlifName: zero
Width: 566
VWidth: 0
Flags: W
HStem: -18 36<228.089 335.713> 687 36<225.037 338.702>
VStem: 46 108<194.912 522.574> 406 108<195.19 522.538>
LayerCount: 2
Fore
SplineSet
280 723 m 256,0,1
 390 723 390 723 452 614 c 128,-1,2
 514 505 514 505 514 360 c 256,3,4
 514 215 514 215 452 98.5 c 128,-1,5
 390 -18 390 -18 280 -18 c 256,6,7
 170 -18 170 -18 108 98.5 c 128,-1,8
 46 215 46 215 46 360 c 256,9,10
 46 505 46 505 108 614 c 128,-1,11
 170 723 170 723 280 723 c 256,0,1
280 687 m 256,12,13
 215 687 215 687 184.5 611 c 128,-1,14
 154 535 154 535 154 360 c 256,15,16
 154 185 154 185 184.5 101.5 c 128,-1,17
 215 18 215 18 280 18 c 256,18,19
 345 18 345 18 375.5 89 c 128,-1,20
 406 160 406 160 406 360 c 256,21,22
 406 560 406 560 375.5 623.5 c 128,-1,23
 345 687 345 687 280 687 c 256,12,13
EndSplineSet
EndChar

StartChar: parenright
Encoding: 41 41 12
GlifName: parenright
Width: 335
VWidth: 0
Flags: W
VStem: 191 90<137.013 438.987>
LayerCount: 2
Fore
SplineSet
281 288 m 0,0,1
 280 165 280 165 221 37 c 0,2,3
 172 -69 172 -69 67 -174 c 0,4,5
 61 -180 61 -180 54 -180 c 0,6,7
 46 -180 46 -180 41 -175 c 128,-1,8
 36 -170 36 -170 36 -163 c 0,9,10
 36 -157 36 -157 42 -150 c 0,11,12
 98 -85 98 -85 146 31 c 0,13,14
 191 140 191 140 191 288 c 256,15,16
 191 436 191 436 146 545 c 128,-1,17
 101 654 101 654 42 726 c 0,18,19
 36 733 36 733 36 739 c 0,20,21
 36 746 36 746 41 751 c 128,-1,22
 46 756 46 756 54 756 c 0,23,24
 61 756 61 756 67 750 c 0,25,26
 172 645 172 645 221 539 c 0,27,28
 280 411 280 411 281 288 c 0,0,1
EndSplineSet
EndChar

StartChar: t
Encoding: 116 116 13
GlifName: t
Width: 360
VWidth: 0
Flags: W
HStem: -18 36<209.32 292.78> 424 36<36.0308 83.7462 187 317>
VStem: 97 90<42.822 424> 152 35<546.39 599.843>
LayerCount: 2
Fore
SplineSet
187 587 m 2,0,-1
 187 460 l 1,1,-1
 308 460 l 258,2,3
 317 460 317 460 317 451 c 258,4,-1
 317 433 l 2,5,6
 317 424 317 424 308 424 c 2,7,-1
 187 424 l 1,8,-1
 187 133 l 2,9,10
 187 68 187 68 204 42 c 0,11,12
 219 18 219 18 249 18 c 0,13,14
 278 18 278 18 313 53 c 256,15,16
 318 58 318 58 325 58 c 256,17,18
 332 58 332 58 337 53 c 256,19,20
 342 48 342 48 342 41 c 256,21,22
 342 34 342 34 337 29 c 0,23,24
 290 -18 290 -18 227 -18 c 0,25,26
 157 -18 157 -18 127 15 c 128,-1,27
 97 48 97 48 97 128 c 2,28,-1
 97 424 l 1,29,-1
 54 424 l 2,30,31
 36 424 36 424 36 441 c 256,32,33
 36 457 36 457 50 460 c 0,34,35
 84.9921875 468.505859375 84.9921875 468.505859375 115 513 c 256,36,37
 145.0078125 557.494140625 145.0078125 557.494140625 152 593 c 0,38,39
 153 598 153 598 158 602 c 256,40,41
 162 605 162 605 169 605 c 256,42,43
 177 605 177 605 182 600 c 256,44,45
 187 595 187 595 187 587 c 2,0,-1
EndSplineSet
EndChar

StartChar: s
Encoding: 115 115 14
GlifName: s
Width: 359
VWidth: 0
Flags: W
HStem: -20 30<115.863 232.645> 450 30<117.257 227.36>
VStem: 18 24<100.435 147.935> 26 68<344.868 427.055> 266 75<49.0679 139.085> 275 25<345.094 392.25>
LayerCount: 2
Fore
SplineSet
400.112304688 669.881835938 m 1,0,-1
 418.497070312 651.497070312 l 1,1,-1
 385.969726562 618.969726562 l 1,2,-1
 422.739257812 582.200195312 l 1,3,-1
 405.76953125 565.229492188 l 1,4,-1
 369 602 l 1,5,-1
 330.815429688 563.815429688 l 1,6,-1
 312.430664062 582.200195312 l 1,7,-1
 350.615234375 620.384765625 l 1,8,-1
 315.259765625 655.739257812 l 1,9,-1
 332.23046875 672.709960938 l 1,10,-1
 367.584960938 637.354492188 l 1,11,-1
 400.112304688 669.881835938 l 1,0,-1
269 451 m 1,12,-1
 287 476 l 2,13,14
 289 479 289 479 294 479 c 0,15,16
 302 479 302 479 301 472 c 0,17,18
 298 443 298 443 298 413 c 256,19,20
 298 383 298 383 300 354 c 256,21,22
 300 348 300 348 297 345 c 128,-1,23
 294 342 294 342 289 342 c 256,24,25
 287 342 287 342 281 345 c 0,26,27
 277 347 277 347 275 357 c 0,28,29
 268 394 268 394 241 424 c 0,30,31
 217 450 217 450 169 450 c 256,32,33
 135 450 135 450 114.5 433 c 128,-1,34
 94 416 94 416 94 389 c 256,35,36
 94 339 94 339 216 282 c 0,37,38
 341 223 341 223 341 130 c 0,39,40
 341 65 341 65 296 22.5 c 128,-1,41
 251 -20 251 -20 181 -20 c 256,42,43
 116 -20 116 -20 56 22 c 1,44,-1
 37 -6 l 2,45,46
 34 -10 34 -10 29 -10 c 256,47,48
 24 -10 24 -10 21 -8 c 128,-1,49
 18 -6 18 -6 18 0 c 0,50,51
 20 41 20 41 20 71 c 256,52,53
 20 113 20 113 18 135 c 0,54,55
 17 146 17 146 29 148 c 0,56,57
 40 149 40 149 42 139 c 256,58,59
 52 87 52 87 86.5 48.5 c 128,-1,60
 121 10 121 10 175 10 c 256,61,62
 217 10 217 10 241.5 31 c 128,-1,63
 266 52 266 52 266 91 c 256,64,65
 266 145 266 145 155 197 c 0,66,67
 26 258 26 258 26 353 c 256,68,69
 26 405 26 405 61.5 442.5 c 128,-1,70
 97 480 97 480 162 480 c 256,71,72
 219 480 219 480 269 451 c 1,12,-1
EndSplineSet
EndChar

StartChar: u
Encoding: 117 117 15
GlifName: u
Width: 600
VWidth: 0
Flags: W
HStem: -18 36<225.84 334.547> 18 36<518.957 576.843> 426 36<24.1877 77.0732 343.188 396.577>
VStem: 95 90<59.0082 404.463> 414 90<98.2012 404.948>
LayerCount: 2
Fore
SplineSet
504 134 m 2,0,1
 504 82 504 82 518.5 68 c 128,-1,2
 533 54 533 54 564 54 c 0,3,4
 572 54 572 54 577 49 c 128,-1,5
 582 44 582 44 582 36 c 0,6,7
 582 29 582 29 578 24 c 0,8,9
 575 19 575 19 568 18 c 0,10,11
 535 13 535 13 505 5 c 0,12,13
 476 -3 476 -3 460 -9 c 128,-1,14
 444 -15 444 -15 441 -15 c 0,15,16
 432 -15 432 -15 429 -6 c 0,17,18
 425 8 425 8 422 27 c 128,-1,19
 419 46 419 46 418 73 c 1,20,21
 387 27 387 27 349.5 4.5 c 128,-1,22
 312 -18 312 -18 253 -18 c 0,23,24
 178 -18 178 -18 136.5 20 c 128,-1,25
 95 58 95 58 95 153 c 2,26,-1
 95 348 l 2,27,28
 95 388 95 388 80 405 c 0,29,30
 65 423 65 423 37 426 c 0,31,32
 29 427 29 427 23.5 431 c 128,-1,33
 18 435 18 435 18 444 c 128,-1,34
 18 453 18 453 24 457.5 c 128,-1,35
 30 462 30 462 37 462 c 0,36,37
 41 462 41 462 59 461 c 128,-1,38
 77 460 77 460 101 460 c 128,-1,39
 125 460 125 460 144.5 462 c 128,-1,40
 164 464 164 464 168 464 c 0,41,42
 175 464 175 464 180 459 c 128,-1,43
 185 454 185 454 185 447 c 2,44,-1
 185 180 l 2,45,46
 185 100 185 100 207.5 59 c 128,-1,47
 230 18 230 18 275 18 c 0,48,49
 328 18 328 18 371 67 c 128,-1,50
 414 116 414 116 414 211 c 2,51,-1
 414 348 l 2,52,53
 414 388 414 388 399 405.5 c 128,-1,54
 384 423 384 423 356 426 c 0,55,56
 348 427 348 427 342.5 431 c 128,-1,57
 337 435 337 435 337 444 c 128,-1,58
 337 453 337 453 343 457.5 c 128,-1,59
 349 462 349 462 356 462 c 0,60,61
 360 462 360 462 378 461 c 128,-1,62
 396 460 396 460 420 460 c 128,-1,63
 444 460 444 460 463.5 462 c 128,-1,64
 483 464 483 464 487 464 c 0,65,66
 494 464 494 464 499 459 c 128,-1,67
 504 454 504 454 504 447 c 2,68,-1
 504 134 l 2,0,1
EndSplineSet
EndChar

StartChar: quotesingle
Encoding: 39 39 16
GlifName: quotesingle
Width: 198
VWidth: 0
Flags: W
HStem: 460 290<80.7678 117.232>
VStem: 54 90<508.938 737.621>
LayerCount: 2
Fore
SplineSet
56 676 m 10,0,1
 54 692 54 692 54 696 c 0,2,3
 54 726 54 726 66 738 c 128,-1,4
 78 750 78 750 99 750 c 256,5,6
 120 750 120 750 132 738 c 128,-1,7
 144 726 144 726 144 696 c 0,8,9
 144 692 144 692 142 676 c 18,10,-1
 117 478 l 2,11,12
 115 460 115 460 99 460 c 256,13,14
 83 460 83 460 81 478 c 2,15,-1
 56 676 l 10,0,1
EndSplineSet
EndChar

StartChar: quotedbl
Encoding: 34 34 17
GlifName: quotedbl
Width: 362
VWidth: 0
Flags: W
HStem: 460 290<80.7678 117.232 244.768 281.232>
VStem: 54 90<508.938 737.621> 218 90<508.938 737.621>
LayerCount: 2
Fore
SplineSet
220 676 m 2,0,1
 218 691.83984375 218 691.83984375 218 696 c 0,2,3
 218 726 218 726 230 738 c 128,-1,4
 242 750 242 750 263 750 c 256,5,6
 284 750 284 750 296 738 c 128,-1,7
 308 726 308 726 308 696 c 0,8,9
 308 692 308 692 306 676 c 2,10,-1
 281 478 l 2,11,12
 278.727539062 460 278.727539062 460 263 460 c 256,13,14
 247 460 247 460 245 478 c 2,15,-1
 220 676 l 2,0,1
56 676 m 2,16,17
 54 691.83984375 54 691.83984375 54 696 c 0,18,19
 54 726 54 726 66 738 c 128,-1,20
 78 750 78 750 99 750 c 256,21,22
 120 750 120 750 132 738 c 128,-1,23
 144 726 144 726 144 696 c 0,24,25
 144 692 144 692 142 676 c 2,26,-1
 117 478 l 2,27,28
 114.727539062 460 114.727539062 460 99 460 c 256,29,30
 83.2724609375 460 83.2724609375 460 81 478 c 2,31,-1
 56 676 l 2,16,17
EndSplineSet
EndChar

StartChar: ampersand
Encoding: 38 38 18
GlifName: ampersand
Width: 770
VWidth: 0
Flags: W
HStem: -20 55<174.32 295.677> -10 58<574.954 682.546> 383 48<587.079 668> 698 27<232.567 327.863>
VStem: 30 96<87.5537 213.316> 128 64<499.463 642.215> 371 68<498.841 665.31> 630 103<316.503 382.77>
LayerCount: 2
Fore
SplineSet
637.112304688 669.881835938 m 5,0,-1
 655.497070312 651.497070312 l 5,1,-1
 622.969726562 618.969726562 l 5,2,-1
 659.739257812 582.200195312 l 5,3,-1
 642.76953125 565.229492188 l 5,4,-1
 606 602 l 5,5,-1
 567.815429688 563.815429688 l 5,6,-1
 549.430664062 582.200195312 l 5,7,-1
 587.615234375 620.384765625 l 5,8,-1
 552.259765625 655.739257812 l 5,9,-1
 569.23046875 672.709960938 l 5,10,-1
 604.584960938 637.354492188 l 5,11,-1
 637.112304688 669.881835938 l 5,0,-1
128 530 m 256,12,13
 128 636 128 636 181 680 c 256,14,15
 235 725 235 725 295 725 c 256,16,17
 357 725 357 725 398 686 c 128,-1,18
 439 647 439 647 439 591 c 256,19,20
 439 536 439 536 410 488 c 256,21,22
 372 425 372 425 300 369 c 257,23,24
 367 276 367 276 449 194 c 257,25,26
 489 253 489 253 513 302 c 256,27,28
 538 351 538 351 571 392 c 256,29,30
 603 431 603 431 653 431 c 256,31,32
 683 431 683 431 708 411 c 256,33,34
 733 391 733 391 733 360 c 256,35,36
 733 332 733 332 718 316 c 256,37,38
 701 298 701 298 673 298 c 256,39,40
 654 298 654 298 640 312 c 128,-1,41
 626 326 626 326 626 348 c 256,42,43
 626 354 626 354 628 359 c 128,-1,44
 630 364 630 364 630 370 c 256,45,46
 630 375 630 375 626 379 c 128,-1,47
 622 383 622 383 616 383 c 256,48,49
 586 383 586 383 548 305 c 256,50,51
 517 241 517 241 474 173 c 257,52,53
 565 48 565 48 643 48 c 256,54,55
 688 48 688 48 725 93 c 256,56,57
 730 99 730 99 736 99 c 256,58,59
 742 99 742 99 746 95 c 128,-1,60
 750 91 750 91 750 86 c 256,61,62
 750 79 750 79 746 73 c 256,63,64
 690 -10 690 -10 591 -10 c 256,65,66
 488 -10 488 -10 406 85 c 257,67,68
 307 -20 307 -20 190 -20 c 256,69,70
 118 -20 118 -20 74 20 c 128,-1,71
 30 60 30 60 30 124 c 256,72,73
 30 188 30 188 68 236.5 c 128,-1,74
 106 285 106 285 200 340 c 257,75,76
 128 459 128 459 128 530 c 256,12,13
279 396 m 257,77,78
 338 453 338 453 355 492 c 256,79,80
 371 530 371 530 371 565 c 256,81,82
 370 639 370 639 346 668 c 256,83,84
 321 698 321 698 285 698 c 256,85,86
 238 698 238 698 216 670 c 256,87,88
 192 639 192 639 192 591 c 256,89,90
 192 506 192 506 279 396 c 257,77,78
219 311 m 257,91,92
 126 243 126 243 126 167 c 256,93,94
 126 118 126 118 156 76.5 c 128,-1,95
 186 35 186 35 246 35 c 256,96,97
 306 35 306 35 384 110 c 257,98,99
 293 200 293 200 219 311 c 257,91,92
EndSplineSet
EndChar

StartChar: one
Encoding: 49 49 19
GlifName: one
Width: 406
VWidth: 0
Flags: W
HStem: -3 36<46.157 136.272 256.015 346.843> 652 38<41.1567 136.468> 702 20G<220.5 227.5>
VStem: 152 90<54.0863 635.591>
LayerCount: 2
Fore
SplineSet
152 600 m 2,0,1
 152 623 152 623 137 636 c 0,2,3
 120 651 120 651 99 652 c 0,4,5
 80 653 80 653 58 654 c 0,6,7
 50 654 50 654 45.5 659 c 128,-1,8
 41 664 41 664 41 672 c 256,9,10
 41 680 41 680 46 685 c 128,-1,11
 51 690 51 690 58 690 c 0,12,13
 76 690 76 690 133 703 c 256,14,15
 217 722 217 722 224 722 c 256,16,17
 231 722 231 722 237 717 c 0,18,19
 242 713 242 713 242 704 c 2,20,-1
 242 124 l 2,21,22
 242 72 242 72 254 53.5 c 128,-1,23
 265.959899749 35.0618212197 265.959899749 35.0618212197 301 34 c 2,24,-1
 334 33 l 2,25,26
 342 33 342 33 347 28 c 128,-1,27
 352 23 352 23 352 15 c 128,-1,28
 352 7 352 7 347 2 c 128,-1,29
 342 -3 342 -3 334 -3 c 0,30,31
 325 -3 325 -3 283 -2 c 128,-1,32
 241 -1 241 -1 205 -1 c 2,33,-1
 188 -1 l 2,34,35
 152 -1 152 -1 110 -2 c 128,-1,36
 68 -3 68 -3 59 -3 c 0,37,38
 51 -3 51 -3 46 2 c 128,-1,39
 41 7 41 7 41 15 c 128,-1,40
 41 23 41 23 46 28 c 0,41,42
 50.75 32.75 50.75 32.75 59 33 c 2,43,-1
 92 34 l 2,44,45
 125 35 125 35 138.5 53.5 c 128,-1,46
 152 72 152 72 152 124 c 2,47,-1
 152 600 l 2,0,1
EndSplineSet
EndChar

StartChar: c
Encoding: 99 99 20
GlifName: c
Width: 485
VWidth: 0
Flags: W
HStem: -18 36<224.033 360.383> 442 36<224.64 344.481>
VStem: 36 108<121.062 338.938> 357 85<387.376 432.5>
LayerCount: 2
Fore
SplineSet
445 74 m 260,0,1
 449 69 449 69 449 62 c 260,2,3
 449 56 449 56 444 51 c 4,4,5
 374 -18 374 -18 274 -18 c 260,6,7
 184 -18 184 -18 110 51 c 132,-1,8
 36 120 36 120 36 230 c 260,9,10
 36 340 36 340 110 409 c 132,-1,11
 184 478 184 478 294 478 c 260,12,13
 374 478 374 478 408 461.5 c 132,-1,14
 442 445 442 445 442 417 c 4,15,16
 442 399 442 399 431 387 c 132,-1,17
 420 375 420 375 402 375 c 260,18,19
 367 375 367 375 357 404 c 4,20,21
 345 442 345 442 291 442 c 260,22,23
 228 442 228 442 186 391 c 132,-1,24
 144 340 144 340 144 230 c 260,25,26
 144 120 144 120 186 69 c 132,-1,27
 228 18 228 18 290 18 c 260,28,29
 352 18 352 18 420 75 c 4,30,31
 426 80 426 80 433 80 c 132,-1,32
 440 80 440 80 445 74 c 260,0,1
EndSplineSet
EndChar

StartChar: plus
Encoding: 43 43 21
GlifName: plus
Width: 647
VWidth: 1000
Flags: W
HStem: 334 36<36 306 342 611>
VStem: 306 36<64 334 370 640>
LayerCount: 2
Fore
SplineSet
36 343 m 6,0,-1
 36 361 l 6,1,2
 36 370 36 370 45 370 c 6,3,-1
 306 370 l 5,4,-1
 306 631 l 6,5,6
 306 640 306 640 315 640 c 6,7,-1
 333 640 l 6,8,9
 342 640 342 640 342 631 c 6,10,-1
 342 370 l 5,11,-1
 602 370 l 6,12,13
 611 370 611 370 611 361 c 6,14,-1
 611 343 l 6,15,16
 611 334 611 334 602 334 c 6,17,-1
 342 334 l 5,18,-1
 342 73 l 6,19,20
 342 64 342 64 333 64 c 6,21,-1
 315 64 l 6,22,23
 306 64 306 64 306 73 c 6,24,-1
 306 334 l 5,25,-1
 45 334 l 6,26,27
 36 334 36 334 36 343 c 6,0,-1
EndSplineSet
EndChar

StartChar: numbersign
Encoding: 35 35 22
GlifName: numbersign
Width: 793
VWidth: 0
Flags: W
HStem: 244 36<37.0391 268 311 449 492 722.961> 424 36<69.5469 300 344 481 525 755.5>
DStem2: 228 19 265 19 0.175893 0.984409<-5.83999 228.528 271.53 411.35 454.528 688.896> 409 19 446 19 0.175893 0.984409<-5.83999 228.528 271.53 411.35 454.528 688.896>
LayerCount: 2
Fore
SplineSet
757 451 m 2,0,-1
 754 433 l 2,1,2
 752 424 752 424 745 424 c 2,3,-1
 518 424 l 1,4,-1
 492 280 l 1,5,-1
 716 280 l 2,6,7
 725 280 725 280 724 271 c 2,8,-1
 722 253 l 2,9,10
 721 244 721 244 713 244 c 2,11,-1
 486 244 l 1,12,-1
 446 19 l 2,13,14
 444 10 444 10 437 10 c 2,15,-1
 418 10 l 2,16,17
 408 10 408 10 409 19 c 2,18,-1
 449 244 l 1,19,-1
 305 244 l 1,20,-1
 265 19 l 2,21,22
 263 10 263 10 256 10 c 2,23,-1
 237 10 l 2,24,25
 227 10 227 10 228 19 c 2,26,-1
 268 244 l 1,27,-1
 44 244 l 2,28,29
 35 244 35 244 36 253 c 2,30,-1
 38 271 l 2,31,32
 39 280 39 280 48 280 c 2,33,-1
 274 280 l 1,34,-1
 300 424 l 1,35,-1
 76 424 l 2,36,37
 66 424 66 424 68 433 c 2,38,-1
 71 451 l 2,39,40
 72 460 72 460 81 460 c 2,41,-1
 307 460 l 1,42,-1
 347 685 l 2,43,44
 349 694 349 694 356 694 c 2,45,-1
 375 694 l 2,46,47
 385 694 385 694 384 685 c 2,48,-1
 344 460 l 1,49,-1
 488 460 l 1,50,-1
 528 685 l 2,51,52
 530 694 530 694 538 694 c 2,53,-1
 556 694 l 2,54,55
 566 694 566 694 565 685 c 2,56,-1
 525 460 l 1,57,-1
 749 460 l 2,58,59
 758 460 758 460 757 451 c 2,0,-1
455 280 m 1,60,-1
 481 424 l 1,61,-1
 337 424 l 1,62,-1
 311 280 l 1,63,-1
 455 280 l 1,60,-1
EndSplineSet
EndChar

StartChar: semicolon
Encoding: 59 59 23
GlifName: semicolon
Width: 216
VWidth: 1000
Flags: W
HStem: 0 108<69.5024 137.654> 354 108<63.1602 150.84>
VStem: 53 108<364.16 451.84> 139 41<-57.7302 43>
LayerCount: 2
Fore
SplineSet
53 408 m 256,0,1
 53 430 53 430 69 446 c 128,-1,2
 85 462 85 462 107 462 c 256,3,4
 129 462 129 462 145 446 c 128,-1,5
 161 430 161 430 161 408 c 256,6,7
 161 386 161 386 145 370 c 128,-1,8
 129 354 129 354 107 354 c 256,9,10
 85 354 85 354 69 370 c 128,-1,11
 53 386 53 386 53 408 c 256,0,1
45 -127 m 0,12,13
 139 -62 139 -62 139 -4 c 0,14,15
 139 6 139 6 138 13 c 1,16,17
 127 0 127 0 107 0 c 0,18,19
 85 0 85 0 69 15.5 c 128,-1,20
 53 31 53 31 53 54 c 256,21,22
 53 77 53 77 69 92.5 c 128,-1,23
 85 108 85 108 111 108 c 0,24,25
 142 108 142 108 161 86.5 c 128,-1,26
 180 65 180 65 180 21 c 0,27,28
 180 -89 180 -89 60 -150 c 0,29,30
 54 -153 54 -153 50 -153 c 0,31,32
 39 -153 39 -153 36.5 -144 c 128,-1,33
 34 -135 34 -135 45 -127 c 0,12,13
EndSplineSet
EndChar

StartChar: comma
Encoding: 44 44 24
GlifName: comma
Width: 214
VWidth: 1000
Flags: W
HStem: 0 108<67.5024 135.654>
VStem: 137 41<-57.7302 43>
LayerCount: 2
Fore
SplineSet
43 -127 m 0,0,1
 137 -62 137 -62 137 -4 c 0,2,3
 137 6 137 6 136 13 c 1,4,5
 125 0 125 0 105 0 c 0,6,7
 83 0 83 0 67 15.5 c 128,-1,8
 51 31 51 31 51 54 c 256,9,10
 51 77 51 77 67 92.5 c 128,-1,11
 83 108 83 108 109 108 c 0,12,13
 140 108 140 108 159 86.5 c 128,-1,14
 178 65 178 65 178 21 c 0,15,16
 178 -89 178 -89 58 -150 c 0,17,18
 52 -153 52 -153 48 -153 c 0,19,20
 37 -153 37 -153 34.5 -144 c 128,-1,21
 32 -135 32 -135 43 -127 c 0,0,1
EndSplineSet
EndChar

StartChar: colon
Encoding: 58 58 25
GlifName: colon
Width: 144
VWidth: 1000
Flags: W
HStem: 0 108<28.1602 115.84> 354 108<28.1602 115.84>
VStem: 18 108<10.1602 97.8398 364.16 451.84>
LayerCount: 2
Fore
SplineSet
18 408 m 256,0,1
 18 430 18 430 34 446 c 128,-1,2
 50 462 50 462 72 462 c 256,3,4
 94 462 94 462 110 446 c 128,-1,5
 126 430 126 430 126 408 c 256,6,7
 126 386 126 386 110 370 c 128,-1,8
 94 354 94 354 72 354 c 256,9,10
 50 354 50 354 34 370 c 128,-1,11
 18 386 18 386 18 408 c 256,0,1
18 54 m 260,12,13
 18 76 18 76 34 92 c 132,-1,14
 50 108 50 108 72 108 c 260,15,16
 94 108 94 108 110 92 c 132,-1,17
 126 76 126 76 126 54 c 260,18,19
 126 32 126 32 110 16 c 132,-1,20
 94 0 94 0 72 0 c 260,21,22
 50 0 50 0 34 16 c 132,-1,23
 18 32 18 32 18 54 c 260,12,13
EndSplineSet
EndChar

StartChar: period
Encoding: 46 46 26
GlifName: period
Width: 144
VWidth: 1000
Flags: W
HStem: 0 108<28.1602 115.84>
VStem: 18 108<10.1602 97.8398>
LayerCount: 2
Fore
SplineSet
18 54 m 260,0,1
 18 76 18 76 34 92 c 132,-1,2
 50 108 50 108 72 108 c 260,3,4
 94 108 94 108 110 92 c 132,-1,5
 126 76 126 76 126 54 c 260,6,7
 126 32 126 32 110 16 c 132,-1,8
 94 0 94 0 72 0 c 260,9,10
 50 0 50 0 34 16 c 132,-1,11
 18 32 18 32 18 54 c 260,0,1
EndSplineSet
EndChar

StartChar: exclam
Encoding: 33 33 27
GlifName: exclam
Width: 180
VWidth: 0
Flags: W
HStem: 0 108<46.1602 133.84> 705 20G<63 117>
VStem: 36 108<10.1602 97.8398 423.66 714.022> 72 36<184.157 406.379>
LayerCount: 2
Fore
SplineSet
36 54 m 256,0,1
 36 76 36 76 52 92 c 128,-1,2
 68 108 68 108 90 108 c 256,3,4
 112 108 112 108 128 92 c 128,-1,5
 144 76 144 76 144 54 c 256,6,7
 144 32 144 32 128 16 c 128,-1,8
 112 0 112 0 90 0 c 256,9,10
 68 0 68 0 52 16 c 128,-1,11
 36 32 36 32 36 54 c 256,0,1
36 640 m 0,12,13
 36 725 36 725 90 725 c 256,14,15
 144 725 144 725 144 640 c 0,16,17
 144 604 144 604 126 463 c 128,-1,18
 108 322 108 322 108 197 c 256,19,20
 108 189 108 189 103 184 c 128,-1,21
 98 179 98 179 90 179 c 256,22,23
 82 179 82 179 77 184 c 128,-1,24
 72 189 72 189 72 197 c 0,25,26
 72 322 72 322 54 463 c 128,-1,27
 36 604 36 604 36 640 c 0,12,13
EndSplineSet
EndChar

StartChar: hyphen
Encoding: 45 45 28
GlifName: hyphen
Width: 347
VWidth: 1000
Flags: W
HStem: 334 36<36 311>
VStem: 36 275<334 370>
LayerCount: 2
Fore
SplineSet
36 343 m 2,0,-1
 36 361 l 2,1,2
 36 370 36 370 45 370 c 2,3,-1
 302 370 l 2,4,5
 311 370 311 370 311 361 c 2,6,-1
 311 343 l 2,7,8
 311 334 311 334 302 334 c 2,9,-1
 45 334 l 2,10,11
 36 334 36 334 36 343 c 2,0,-1
EndSplineSet
EndChar

StartChar: slash
Encoding: 47 47 29
GlifName: slash
Width: 532
VWidth: 0
Flags: W
HStem: 705 20G<497 529>
DStem2: 2 -30 46 -30 0.544791 0.838572<0.12663 912.259>
LayerCount: 2
Fore
SplineSet
46 -30 m 2,0,1
 40 -40 40 -40 30 -40 c 2,2,-1
 6 -40 l 2,3,4
 0 -40 0 -40 0 -35 c 0,5,6
 0 -33 0 -33 2 -30 c 2,7,-1
 486 715 l 2,8,9
 492 725 492 725 502 725 c 2,10,-1
 526 725 l 2,11,12
 532 725 532 725 532 720 c 0,13,14
 532 718 532 718 530 715 c 2,15,-1
 46 -30 l 2,0,1
EndSplineSet
EndChar

StartChar: equal
Encoding: 61 61 30
GlifName: equal
Width: 647
VWidth: 1000
Flags: W
HStem: 244 36<36 611> 424 36<36 611>
LayerCount: 2
Fore
SplineSet
36 253 m 2,0,-1
 36 271 l 2,1,2
 36 280 36 280 45 280 c 2,3,-1
 602 280 l 2,4,5
 611 280 611 280 611 271 c 2,6,-1
 611 253 l 2,7,8
 611 244 611 244 602 244 c 2,9,-1
 45 244 l 2,10,11
 36 244 36 244 36 253 c 2,0,-1
36 433 m 2,12,-1
 36 451 l 2,13,14
 36 460 36 460 45 460 c 2,15,-1
 602 460 l 2,16,17
 611 460 611 460 611 451 c 2,18,-1
 611 433 l 2,19,20
 611 424 611 424 602 424 c 2,21,-1
 45 424 l 2,22,23
 36 424 36 424 36 433 c 2,12,-1
EndSplineSet
EndChar

StartChar: e
Encoding: 101 101 31
GlifName: e
Width: 527
VWidth: 0
Flags: W
HStem: -18 36<225.136 368.397> 280 36<152 387.997> 442 36<214.371 352.552>
VStem: 36 108<120.422 308.624> 388 104<284.5 378.269>
LayerCount: 2
Fore
SplineSet
152 316 m 1,0,-1
 377 316 l 2,1,2
 388 316 388 316 388 326 c 0,3,4
 388 382 388 382 365.5 412 c 128,-1,5
 343 442 343 442 287 442 c 0,6,7
 227 442 227 442 196.5 411 c 128,-1,8
 166 380 166 380 152 316 c 1,0,-1
483 280 m 2,9,-1
 146 280 l 1,10,11
 144 261 144 261 144 229 c 0,12,13
 144 117 144 117 187 67.5 c 128,-1,14
 230 18 230 18 290 18 c 0,15,16
 365 18 365 18 441 82 c 0,17,18
 447 87 447 87 454 87 c 128,-1,19
 461 87 461 87 466 81 c 0,20,21
 470 76 470 76 470 69 c 256,22,23
 470 64 470 64 465 58 c 0,24,25
 440 27 440 27 376 0 c 256,26,27
 333 -18 333 -18 274 -18 c 0,28,29
 186 -18 186 -18 111 50 c 128,-1,30
 36 118 36 118 36 229 c 256,31,32
 36 340 36 340 110.5 409 c 128,-1,33
 185 478 185 478 289 478 c 0,34,35
 375 478 375 478 433.5 423 c 128,-1,36
 492 368 492 368 492 289 c 0,37,38
 492 280 492 280 483 280 c 2,9,-1
EndSplineSet
EndChar

StartChar: f
Encoding: 102 102 32
GlifName: f
Width: 309
VWidth: 0
Flags: W
HStem: -2 36<23.157 54 201.377 283.843> 423 37<9 99 189 318> 687 36<234.153 328.889>
VStem: 99 90<49.3877 423 460 634.844>
LayerCount: 2
Fore
SplineSet
373 633 m 256,0,1
 347 633 347 633 335 659 c 0,2,3
 322 687 322 687 290 687 c 0,4,5
 239 687 239 687 214 646 c 128,-1,6
 189 605 189 605 189 506 c 2,7,-1
 189 460 l 1,8,-1
 309 460 l 2,9,10
 318 460 318 460 318 451 c 2,11,-1
 318 432 l 2,12,13
 318 423 318 423 309 423 c 2,14,-1
 189 423 l 1,15,-1
 189 125 l 2,16,17
 189 61 189 61 201 49 c 0,18,19
 213 36 213 36 233 35 c 2,20,-1
 271 34 l 2,21,22
 279 34 279 34 284 29 c 128,-1,23
 289 24 289 24 289 16 c 128,-1,24
 289 8 289 8 284 3 c 128,-1,25
 279 -2 279 -2 271 -2 c 0,26,27
 262 -2 262 -2 235 -1 c 128,-1,28
 208 0 208 0 172 0 c 2,29,-1
 135 0 l 2,30,31
 99 0 99 0 72 -1 c 128,-1,32
 45 -2 45 -2 36 -2 c 0,33,34
 28 -2 28 -2 23 3 c 128,-1,35
 18 8 18 8 18 16 c 128,-1,36
 18 24 18 24 23 29 c 128,-1,37
 28 34 28 34 36 34 c 2,38,-1
 54 35 l 2,39,40
 72 36 72 36 86 49 c 0,41,42
 99 61 99 61 99 125 c 2,43,-1
 99 424 l 1,44,-1
 18 424 l 2,45,46
 9 424 9 424 9 433 c 2,47,-1
 9 451 l 2,48,49
 9 460 9 460 18 460 c 2,50,-1
 99 460 l 1,51,-1
 99 542 l 2,52,53
 99 624 99 624 152 673.5 c 128,-1,54
 205 723 205 723 305 723 c 256,55,56
 363 723 363 723 389 708 c 128,-1,57
 415 693 415 693 415 673 c 256,58,59
 415 653 415 653 404 643 c 128,-1,60
 393 633 393 633 373 633 c 256,0,1
EndSplineSet
EndChar

StartChar: v
Encoding: 118 118 33
GlifName: v
Width: 566
VWidth: 1000
Flags: W
HStem: -18 21G<280.038 298> 426 36<23.157 54 216 246.843 403.157 434 485.985 542.843>
DStem2: 318 103 264 -1 0.384283 -0.923216<-331.362 0> 318 103 314 -1 0.384283 0.923216<0 342.032>
LayerCount: 2
Fore
SplineSet
54 425 m 2,0,-1
 36 426 l 2,1,2
 28 426 28 426 23 431 c 256,3,4
 18 436 18 436 18 444 c 256,5,6
 18 452 18 452 23 457 c 256,7,8
 28 462 28 462 36 462 c 256,9,10
 45 462 45 462 72 461 c 256,11,12
 99 460 99 460 135 460 c 256,13,14
 171 460 171 460 198 461 c 256,15,16
 225 462 225 462 234 462 c 256,17,18
 242 462 242 462 247 457 c 256,19,20
 252 452 252 452 252 444 c 256,21,22
 252 436 252 436 247 431 c 256,23,24
 242.470703125 426.470703125 242.470703125 426.470703125 234 426 c 2,25,-1
 216 425 l 2,26,27
 197 424 197 424 193 410 c 0,28,29
 192.034179688 406.13671875 192.034179688 406.13671875 195 399 c 258,30,-1
 318 103 l 1,31,-1
 442 401 l 258,32,33
 452 424 452 424 434 425 c 2,34,-1
 416 426 l 258,35,36
 408 426 408 426 403 431 c 256,37,38
 398 436 398 436 398 444 c 256,39,40
 398 452 398 452 403 457 c 256,41,42
 408 462 408 462 416 462 c 256,43,44
 420 462 420 462 434.5 461 c 128,-1,45
 449 460 449 460 473 460 c 256,46,47
 494 460 494 460 510.5 461 c 128,-1,48
 527 462 527 462 530 462 c 0,49,50
 538 462 538 462 543 457 c 256,51,52
 548 452 548 452 548 444 c 256,53,54
 548 436 548 436 542 431 c 0,55,56
 537.4375 426.4375 537.4375 426.4375 530 426 c 2,57,-1
 513 425 l 2,58,59
 490.901367188 423.995117188 490.901367188 423.995117188 478 393 c 258,60,-1
 314 -1 l 2,61,62
 307 -18 307 -18 289 -18 c 256,63,64
 271.076171875 -18 271.076171875 -18 264 -1 c 2,65,-1
 100 393 l 2,66,67
 87 423 87 423 54 425 c 2,0,-1
EndSplineSet
EndChar

StartChar: w
Encoding: 119 119 34
GlifName: w
Width: 785
VWidth: 1000
Flags: W
HStem: -18 21G<259.5 277.5 520 538> 426 36<23.157 54 193.098 246.843 622.157 653 704.216 761.843>
DStem2: 297 116 244 -1 0.343274 -0.939235<-311.728 0> 297 116 292 -1 0.340353 0.940298<0 199.268> 439 442 399 291 0.3429 -0.939372<128.129 347.04> 558 116 553 -1 0.343274 0.939235<0 322.847>
LayerCount: 2
Fore
SplineSet
54 425 m 2,0,-1
 36 426 l 2,1,2
 28 426 28 426 23 431 c 128,-1,3
 18 436 18 436 18 444 c 128,-1,4
 18 452 18 452 23 457 c 128,-1,5
 28 462 28 462 36 462 c 0,6,7
 45 462 45 462 72 461 c 128,-1,8
 99 460 99 460 135 460 c 128,-1,9
 171 460 171 460 198 461 c 128,-1,10
 225 462 225 462 234 462 c 0,11,12
 242 462 242 462 247 457 c 128,-1,13
 252 452 252 452 252 444 c 128,-1,14
 252 436 252 436 247 431 c 128,-1,15
 242 426 242 426 234 426 c 2,16,-1
 216 425 l 2,17,18
 196 424 196 424 193 410 c 0,19,20
 192 406 192 406 195 397 c 2,21,-1
 297 116 l 1,22,-1
 415 442 l 2,23,24
 418 451 418 451 427 451 c 128,-1,25
 436 451 436 451 439 442 c 2,26,-1
 558 116 l 1,27,-1
 661 401 l 2,28,29
 669 424 669 424 653 425 c 2,30,-1
 635 426 l 2,31,32
 627 426 627 426 622 431 c 128,-1,33
 617 436 617 436 617 444 c 128,-1,34
 617 452 617 452 622 457 c 128,-1,35
 627 462 627 462 635 462 c 0,36,37
 639 462 639 462 655 461 c 128,-1,38
 671 460 671 460 693.5 460 c 128,-1,39
 716 460 716 460 731 461 c 128,-1,40
 746 462 746 462 749 462 c 0,41,42
 757 462 757 462 762 457 c 128,-1,43
 767 452 767 452 767 444 c 128,-1,44
 767 436 767 436 761 431 c 128,-1,45
 755 426 755 426 749 426 c 2,46,-1
 732 425 l 2,47,48
 708 424 708 424 697 393 c 2,49,-1
 553 -1 l 2,50,51
 547 -18 547 -18 529 -18 c 128,-1,52
 511 -18 511 -18 505 -1 c 2,53,-1
 399 291 l 1,54,-1
 292 -1 l 2,55,56
 286 -18 286 -18 269 -18 c 0,57,58
 250 -18 250 -18 244 -1 c 2,59,-1
 100 393 l 2,60,61
 89 423 89 423 54 425 c 2,0,-1
EndSplineSet
EndChar

StartChar: y
Encoding: 121 121 35
GlifName: y
Width: 566
VWidth: 1000
Flags: W
HStem: -290 87<123.269 192.118> 426 36<23.157 54 216 246.843 403.157 434 513 542.843>
DStem2: 318 103 269.092 -14 0.383665 -0.923472<-331.363 0> 269.092 -14 223 -219 0.384615 0.923077<-206.942 0 126.811 468.833>
LayerCount: 2
Fore
SplineSet
109 -255 m 256,0,1
 109 -240 109 -240 119 -230 c 256,2,3
 135 -214 135 -214 163 -203 c 256,4,5
 195 -191 195 -191 220 -131 c 2,6,-1
 269.091796875 -14 l 1,7,-1
 100 393 l 2,8,9
 87.5498046875 422.966796875 87.5498046875 422.966796875 54 425 c 2,10,-1
 36 426 l 2,11,12
 27.529296875 426.470703125 27.529296875 426.470703125 22.7646484375 431.235351562 c 128,-1,13
 18 436 18 436 18 444 c 128,-1,14
 18 452 18 452 23 457 c 128,-1,15
 28 462 28 462 36 462 c 0,16,17
 45 462 45 462 72 461 c 128,-1,18
 99 460 99 460 135 460 c 128,-1,19
 171 460 171 460 198 461 c 128,-1,20
 225 462 225 462 234 462 c 0,21,22
 242 462 242 462 247 457 c 128,-1,23
 252 452 252 452 252 444 c 128,-1,24
 252 436 252 436 247 431 c 128,-1,25
 242 426 242 426 234 426 c 2,26,-1
 216 425 l 2,27,28
 196.983398438 423.943359375 196.983398438 423.943359375 193 410 c 0,29,30
 192.034179688 406.13671875 192.034179688 406.13671875 195 399 c 2,31,-1
 318 103 l 1,32,-1
 442 401 l 2,33,34
 451.580078125 424.0234375 451.580078125 424.0234375 434 425 c 2,35,-1
 416 426 l 2,36,37
 407.529296875 426.470703125 407.529296875 426.470703125 402.765625 431.235351562 c 128,-1,38
 398 436 398 436 398 444 c 128,-1,39
 398 452 398 452 403 457 c 128,-1,40
 408 462 408 462 416 462 c 0,41,42
 420 462 420 462 436 461 c 128,-1,43
 452 460 452 460 474.5 460 c 128,-1,44
 497 460 497 460 512 461 c 128,-1,45
 527 462 527 462 530 462 c 0,46,47
 538 462 538 462 543 457 c 128,-1,48
 548 452 548 452 548 444 c 128,-1,49
 548 436 548 436 542.227539062 431.189453125 c 0,50,51
 536 426 536 426 530 426 c 2,52,-1
 513 425 l 2,53,54
 490.7890625 423.693359375 490.7890625 423.693359375 478 393 c 2,55,-1
 223 -219 l 2,56,57
 193.416992188 -290 193.416992188 -290 144 -290 c 0,58,59
 129 -290 129 -290 119 -280 c 256,60,61
 109 -270 109 -270 109 -255 c 256,0,1
EndSplineSet
EndChar

StartChar: z
Encoding: 122 122 36
GlifName: z
Width: 465
VWidth: 1000
Flags: W
HStem: 0 36<158 343.09> 424 36<120 301>
VStem: 59 33<344.11 393.211>
DStem2: 39 18 158 36 0.542221 0.840236<79.6486 483.198>
LayerCount: 2
Fore
SplineSet
86 460 m 2,0,-1
 408 460 l 2,1,2
 419 460 419 460 419 450 c 0,3,4
 419 447 419 447 416 442 c 2,5,-1
 158 36 l 1,6,-1
 296 39 l 2,7,8
 350 40 350 40 395 108 c 0,9,10
 407 126 407 126 414 126 c 0,11,12
 431 126 431 126 429 108 c 2,13,-1
 419 18 l 2,14,15
 417 0 417 0 399 0 c 2,16,-1
 47 0 l 2,17,18
 36 0 36 0 36 10 c 0,19,20
 36 13 36 13 39 18 c 2,21,-1
 301 424 l 1,22,-1
 164 422 l 2,23,24
 112 421 112 421 92 362 c 0,25,26
 86 344 86 344 74 344 c 0,27,28
 57 344 57 344 59 362 c 2,29,-1
 66 442 l 2,30,31
 68 460 68 460 86 460 c 2,0,-1
EndSplineSet
EndChar

StartChar: a
Encoding: 97 97 37
GlifName: a
Width: 494
VWidth: 0
Flags: W
HStem: -20 57<385 468.572> -20 45<124 242.633> 450 30<151.125 287.336>
VStem: 35 97<43.2908 152.425> 45 82<354.345 429.137> 321 90<63.5625 258 279.09 422.594>
LayerCount: 2
Fore
SplineSet
321 258 m 1,0,1
 260 237 260 237 227 220 c 0,2,3
 182 197 182 197 157 170 c 128,-1,4
 132 143 132 143 132 98 c 0,5,6
 132 67 132 67 149 46 c 128,-1,7
 166 25 166 25 202 25 c 256,8,9
 244 25 244 25 308 70 c 0,10,11
 321 79 321 79 321 94 c 2,12,-1
 321 258 l 1,0,1
411 105 m 2,13,14
 411 71 411 71 420 54 c 128,-1,15
 429 37 429 37 451 37 c 256,16,17
 463 37 463 37 475 48 c 256,18,19
 487 59 487 59 492 59 c 256,20,21
 496 59 496 59 500 56 c 256,22,23
 504 53 504 53 504 47 c 256,24,25
 504 42 504 42 498 34 c 0,26,27
 457 -20 457 -20 413 -20 c 0,28,29
 357 -20 357 -20 321 49 c 1,30,31
 228 -20 228 -20 149 -20 c 256,32,33
 99 -20 99 -20 67 9 c 128,-1,34
 35 38 35 38 35 84 c 256,35,36
 35 165 35 165 139 212 c 0,37,38
 228 252 228 252 308 283 c 0,39,40
 321 288 321 288 321 303 c 2,41,-1
 320 364 l 2,42,43
 319.182397959 413.87372449 319.182397959 413.87372449 293.09119898 431.936862245 c 128,-1,44
 267 450 267 450 221 450 c 256,45,46
 158 450 158 450 139 424 c 256,47,48
 131 413 131 413 127 386 c 256,49,50
 124 363 124 363 114 353 c 256,51,52
 104 343 104 343 87 343 c 256,53,54
 69 343 69 343 57 354 c 128,-1,55
 45 365 45 365 45 382 c 256,56,57
 45 418 45 418 92 449 c 128,-1,58
 139 480 139 480 234 480 c 256,59,60
 305 480 305 480 358 451 c 128,-1,61
 411 422 411 422 411 324 c 2,62,-1
 411 105 l 2,13,14
417.112304688 669.881835938 m 5,63,-1
 435.497070312 651.497070312 l 5,64,-1
 402.969726562 618.969726562 l 5,65,-1
 439.739257812 582.200195312 l 5,66,-1
 422.76953125 565.229492188 l 5,67,-1
 386 602 l 5,68,-1
 347.815429688 563.815429688 l 5,69,-1
 329.430664062 582.200195312 l 5,70,-1
 367.615234375 620.384765625 l 5,71,-1
 332.259765625 655.739257812 l 5,72,-1
 349.23046875 672.709960938 l 5,73,-1
 384.584960938 637.354492188 l 5,74,-1
 417.112304688 669.881835938 l 5,63,-1
EndSplineSet
EndChar

StartChar: k
Encoding: 107 107 38
GlifName: k
Width: 584
VWidth: 0
Flags: W
HStem: -2 36<41.157 72 251 281.831 498.281 542.843> 426 36<308.157 343 441 481.843> 671 36<46.1567 100.497> 703 20G<185.5 192.5>
VStem: 117 90<49.3877 188 242 654.499>
DStem2: 207 242 286 274 0.675254 0.737585<76.9478 226.516> 286 274 225 208 0.690318 -0.723506<5.64202 317.298>
LayerCount: 2
Fore
SplineSet
117 617 m 2,0,1
 117 639 117 639 101 655 c 128,-1,2
 85 671 85 671 58 671 c 0,3,4
 50 671 50 671 45.5 676 c 128,-1,5
 41 681 41 681 41 689 c 128,-1,6
 41 697 41 697 46 702 c 128,-1,7
 51 707 51 707 58 707 c 0,8,9
 66 707 66 707 80 708 c 0,10,11
 91 708 91 708 124 712 c 0,12,13
 161 716 161 716 169 719 c 0,14,15
 182 723 182 723 189 723 c 128,-1,16
 196 723 196 723 202 718 c 0,17,18
 207 714 207 714 207 705 c 2,19,-1
 207 242 l 1,20,-1
 353 401 l 2,21,22
 357 405 357 405 357 412 c 0,23,24
 357 422.727272727 357 422.727272727 343 424 c 2,25,-1
 321 426 l 2,26,27
 312 427 312 427 308 431 c 0,28,29
 303 436 303 436 303 444 c 128,-1,30
 303 452 303 452 308 457 c 128,-1,31
 313 462 313 462 321 462 c 0,32,33
 325 462 325 462 348.5 461 c 128,-1,34
 372 460 372 460 396 460 c 0,35,36
 417 460 417 460 441.5 461 c 128,-1,37
 466 462 466 462 469 462 c 0,38,39
 477 462 477 462 482 457 c 128,-1,40
 487 452 487 452 487 444 c 128,-1,41
 487 436 487 436 481 431 c 0,42,43
 476.538461538 426.538461538 476.538461538 426.538461538 469 426 c 2,44,-1
 441 424 l 2,45,46
 422.099259904 423.005224205 422.099259904 423.005224205 402 401 c 2,47,-1
 286 274 l 1,48,-1
 494 56 l 2,49,50
 511 38 511 38 530 34 c 0,51,52
 540 32 540 32 544 28 c 128,-1,53
 548 24 548 24 548 16 c 256,54,55
 548 8 548 8 543 3 c 128,-1,56
 538 -2 538 -2 530 -2 c 256,57,58
 521 -2 521 -2 507.5 -1.5 c 128,-1,59
 494 -1 494 -1 485 -1 c 256,60,61
 476 -1 476 -1 462.5 -1.5 c 128,-1,62
 449 -2 449 -2 440 -2 c 256,63,64
 424.285714286 -2 424.285714286 -2 411 12 c 258,65,-1
 225 208 l 1,66,-1
 207 188 l 1,67,-1
 207 125 l 2,68,69
 207 61 207 61 219 49 c 0,70,71
 230.891891892 36.1171171171 230.891891892 36.1171171171 251 35 c 2,72,-1
 269 34 l 2,73,74
 277 34 277 34 281.987692308 28.7784615385 c 0,75,76
 287 24 287 24 287 16 c 128,-1,77
 287 8 287 8 282 3 c 128,-1,78
 277 -2 277 -2 269 -2 c 0,79,80
 260 -2 260 -2 233 -1 c 128,-1,81
 206 0 206 0 170 0 c 2,82,-1
 153 0 l 2,83,84
 117 0 117 0 90 -1 c 128,-1,85
 63 -2 63 -2 54 -2 c 0,86,87
 46 -2 46 -2 41 3 c 128,-1,88
 36 8 36 8 36 16 c 128,-1,89
 36 24 36 24 41 29 c 0,90,91
 45.5294117647 33.5294117647 45.5294117647 33.5294117647 54 34 c 2,92,-1
 72 35 l 2,93,94
 90 36 90 36 104 49 c 0,95,96
 117 61 117 61 117 125 c 2,97,-1
 117 617 l 2,0,1
EndSplineSet
EndChar

StartChar: braceleft
Encoding: 123 123 39
Width: 1050
VWidth: 1000
LayerCount: 2
Back
SplineSet
68 426 m 1,0,-1
 0 426 l 1,1,-1
 0 462 l 1,2,-1
 234 462 l 1,3,-1
 234 426 l 1,4,-1
 166 426 l 1,5,-1
 303 96 l 1,6,-1
 440 426 l 1,7,-1
 385 426 l 1,8,-1
 385 462 l 1,9,-1
 529 462 l 1,10,-1
 529 426 l 1,11,-1
 474 426 l 1,12,-1
 289 -18 l 1,13,-1
 253 -18 l 1,14,-1
 68 426 l 1,0,-1
EndSplineSet
EndChar

StartChar: space
Encoding: 32 32 40
GlifName: space
Width: 378
VWidth: 0
Flags: W
LayerCount: 2
Back
SplineSet
-612 612 m 1,0,-1
 0 612 l 1,1,-1
 0 0 l 1,2,-1
 -612 0 l 1,3,-1
 -612 612 l 1,0,-1
0 612 m 1,4,-1
 378 612 l 1,5,-1
 378 234 l 1,6,-1
 0 234 l 1,7,-1
 0 612 l 1,4,-1
144 234 m 1,8,-1
 378 234 l 1,9,-1
 378 0 l 1,10,-1
 144 0 l 1,11,-1
 144 234 l 1,8,-1
0 144 m 1,12,-1
 144 144 l 1,13,-1
 144 0 l 1,14,-1
 0 0 l 1,15,-1
 0 144 l 1,12,-1
0 234 m 1,16,-1
 90 234 l 1,17,-1
 90 144 l 1,18,-1
 0 144 l 1,19,-1
 0 234 l 1,16,-1
90 234 m 1,20,-1
 144 234 l 1,21,-1
 144 180 l 1,22,-1
 90 180 l 1,23,-1
 90 234 l 1,20,-1
108 180 m 5,24,-1
 144 180 l 5,25,-1
 144 144 l 5,26,-1
 108 144 l 5,27,-1
 108 180 l 5,24,-1
90 180 m 5,28,-1
 108 180 l 5,29,-1
 108 162 l 5,30,-1
 90 162 l 5,31,-1
 90 180 l 5,28,-1
90 162 m 1,32,-1
 108 162 l 1,33,-1
 108 144 l 1,34,-1
 90 144 l 1,35,-1
 90 162 l 1,32,-1
EndSplineSet
EndChar

StartChar: x
Encoding: 120 120 41
GlifName: x
Width: 590
VWidth: 1000
Flags: W
HStem: -2 36<31.1567 75 176 223.843 333.157 384.997 503.841 566.843> 426 36<23.157 54 205.003 256.843 353.157 396 459.76 531.843>
DStem2: 126 67 166 59 0.642612 0.766192<7.97807 185.641 283.219 446.694> 308 284 249 214 0.643298 -0.765616<-165.643 0 52.5149 231.581>
LayerCount: 2
Fore
SplineSet
216 395 m 6,0,-1
 308 284 l 5,1,-1
 406 401 l 6,2,3
 410 406 410 406 410 412 c 4,4,5
 410 423 410 423 396 424 c 6,6,-1
 366 426 l 6,7,8
 357 427 357 427 353 431 c 4,9,10
 348 436 348 436 348 444 c 132,-1,11
 348 452 348 452 353 457 c 132,-1,12
 358 462 358 462 366 462 c 4,13,14
 370 462 370 462 393.5 461 c 132,-1,15
 417 460 417 460 441 460 c 4,16,17
 462 460 462 460 489 461 c 132,-1,18
 516 462 516 462 519 462 c 4,19,20
 527 462 527 462 532 457 c 132,-1,21
 537 452 537 452 537 444 c 132,-1,22
 537 436 537 436 531 431 c 4,23,24
 527 427 527 427 519 426 c 6,25,-1
 491 424 l 6,26,27
 471 423 471 423 452 400 c 6,28,-1
 332 256 l 5,29,-1
 499 57 l 6,30,31
 516 36 516 36 536 35 c 6,32,-1
 554 34 l 6,33,34
 562 34 562 34 567 29 c 132,-1,35
 572 24 572 24 572 16 c 132,-1,36
 572 8 572 8 567 3 c 132,-1,37
 562 -2 562 -2 554 -2 c 4,38,39
 545 -2 545 -2 518 -1 c 132,-1,40
 491 0 491 0 455 0 c 132,-1,41
 419 0 419 0 387 -1 c 132,-1,42
 355 -2 355 -2 346 -2 c 4,43,44
 338 -2 338 -2 333 3 c 132,-1,45
 328 8 328 8 328 16 c 132,-1,46
 328 24 328 24 333 29 c 132,-1,47
 338 34 338 34 346 34 c 6,48,-1
 374 35 l 6,49,50
 385 35 385 35 385 46 c 4,51,52
 385 53 385 53 375 65 c 6,53,-1
 273 186 l 5,54,-1
 166 59 l 6,55,56
 162 54 162 54 162 47 c 4,57,58
 162 37 162 37 176 36 c 6,59,-1
 211 34 l 6,60,61
 219 34 219 34 224 29 c 132,-1,62
 229 24 229 24 229 16 c 132,-1,63
 229 8 229 8 224 3 c 132,-1,64
 219 -2 219 -2 211 -2 c 4,65,66
 207 -2 207 -2 176.5 -1 c 132,-1,67
 146 0 146 0 122 0 c 4,68,69
 101 0 101 0 73.5 -1 c 132,-1,70
 46 -2 46 -2 43 -2 c 4,71,72
 35 -2 35 -2 30 3 c 132,-1,73
 25 8 25 8 25 16 c 132,-1,74
 25 24 25 24 31 29 c 4,75,76
 36 33 36 33 43 34 c 6,77,-1
 75 37 l 6,78,79
 103 40 103 40 126 67 c 6,80,-1
 249 214 l 5,81,-1
 91 403 l 6,82,83
 73 424 73 424 54 425 c 6,84,-1
 36 426 l 6,85,86
 28 426 28 426 23 431 c 132,-1,87
 18 436 18 436 18 444 c 132,-1,88
 18 452 18 452 23 457 c 132,-1,89
 28 462 28 462 36 462 c 4,90,91
 45 462 45 462 72 461 c 132,-1,92
 99 460 99 460 135 460 c 132,-1,93
 171 460 171 460 203 461 c 132,-1,94
 235 462 235 462 244 462 c 4,95,96
 252 462 252 462 257 457 c 132,-1,97
 262 452 262 452 262 444 c 132,-1,98
 262 436 262 436 257 431 c 132,-1,99
 252 426 252 426 244 426 c 6,100,-1
 216 425 l 6,101,102
 205 425 205 425 205 414 c 4,103,104
 205 408 205 408 216 395 c 6,0,-1
EndSplineSet
EndChar

StartChar: b
Encoding: 98 98 42
GlifName: b
Width: 542
VWidth: 0
Flags: W
HStem: -18 36<199.564 322.97> -2 21G<47 51> 442 36<197.853 323.418> 671 36<-30.8433 23.4973> 703 20G<108.5 115.5>
VStem: 40 90<77.8103 383.5 414 654.499> 398 108<119.91 336.71>
LayerCount: 2
Fore
SplineSet
398 230 m 0,0,1
 398 328 398 328 361 385 c 128,-1,2
 324 442 324 442 264 442 c 0,3,4
 212 442 212 442 171 404 c 128,-1,5
 130 366 130 366 130 304 c 2,6,-1
 130 155 l 2,7,8
 130 94 130 94 171.5 56 c 128,-1,9
 213 18 213 18 264 18 c 256,10,11
 323 18 323 18 360.5 74.5 c 128,-1,12
 398 131 398 131 398 230 c 0,0,1
269 -18 m 256,13,14
 184 -18 184 -18 104 55 c 1,15,-1
 56 0 l 2,16,17
 53 -2 53 -2 49 -2 c 264,18,19
 45 -2 45 -2 43 0 c 280,20,21
 40 3 40 3 40 7 c 2,22,-1
 40 617 l 6,23,24
 40 639 40 639 24 655 c 132,-1,25
 8 671 8 671 -19 671 c 4,26,27
 -27 671 -27 671 -31.5 676 c 132,-1,28
 -36 681 -36 681 -36 689 c 132,-1,29
 -36 697 -36 697 -31 702 c 132,-1,30
 -26 707 -26 707 -19 707 c 4,31,32
 -11 707 -11 707 3 708 c 4,33,34
 14 708 14 708 47 712 c 4,35,36
 84 716 84 716 92 719 c 4,37,38
 105 723 105 723 112 723 c 132,-1,39
 119 723 119 723 124.5 718.5 c 132,-1,40
 130 714 130 714 130 705 c 6,41,-1
 130 414 l 5,42,43
 166 453 166 453 198 465.5 c 128,-1,44
 230 478 230 478 269 478 c 0,45,46
 372 478 372 478 439 404 c 128,-1,47
 506 330 506 330 506 230 c 0,48,49
 506 120 506 120 434 51 c 128,-1,50
 362 -18 362 -18 269 -18 c 256,13,14
EndSplineSet
EndChar

StartChar: q
Encoding: 113 113 43
GlifName: q
Width: 546
VWidth: 0
Flags: W
HStem: -290 36<336.157 367 514.377 576.843> -18 36<218.582 344.147> 442 36<219.03 342.436> 442 20G<490.5 495>
VStem: 36 108<123.29 340.09> 412 90<-238.612 46 76.5 382.19>
LayerCount: 2
Fore
SplineSet
273 478 m 0,0,1
 358 478 358 478 438 405 c 1,2,-1
 486 460 l 2,3,4
 488 462 488 462 493 462 c 0,5,6
 497 462 497 462 499 460 c 0,7,8
 502 457 502 457 502 453 c 2,9,-1
 502 -163 l 2,10,11
 502 -227 502 -227 514 -239 c 0,12,13
 526 -252 526 -252 546 -253 c 2,14,-1
 564 -254 l 2,15,16
 572 -254 572 -254 577 -259 c 128,-1,17
 582 -264 582 -264 582 -272 c 128,-1,18
 582 -280 582 -280 577 -285 c 128,-1,19
 572 -290 572 -290 564 -290 c 0,20,21
 555 -290 555 -290 528 -289 c 128,-1,22
 501 -288 501 -288 465 -288 c 2,23,-1
 448 -288 l 2,24,25
 412 -288 412 -288 385 -289 c 128,-1,26
 358 -290 358 -290 349 -290 c 0,27,28
 341 -290 341 -290 336 -285 c 128,-1,29
 331 -280 331 -280 331 -272 c 128,-1,30
 331 -264 331 -264 336 -259 c 128,-1,31
 341 -254 341 -254 349 -254 c 2,32,-1
 367 -253 l 2,33,34
 385 -252 385 -252 399 -239 c 0,35,36
 412 -227 412 -227 412 -163 c 2,37,-1
 412 46 l 1,38,39
 376 7 376 7 344 -5.5 c 128,-1,40
 312 -18 312 -18 273 -18 c 0,41,42
 170 -18 170 -18 103 56 c 128,-1,43
 36 130 36 130 36 230 c 0,44,45
 36 340 36 340 108 409 c 128,-1,46
 180 478 180 478 273 478 c 0,0,1
144 230 m 0,47,48
 144 132 144 132 181 75 c 128,-1,49
 218 18 218 18 278 18 c 0,50,51
 330 18 330 18 371 56 c 128,-1,52
 412 94 412 94 412 156 c 2,53,-1
 412 305 l 2,54,55
 412 366 412 366 370.5 404 c 128,-1,56
 329 442 329 442 278 442 c 0,57,58
 219 442 219 442 181.5 385.5 c 128,-1,59
 144 329 144 329 144 230 c 0,47,48
EndSplineSet
EndChar

StartChar: d
Encoding: 100 100 44
GlifName: d
Width: 587
VWidth: 0
Flags: W
HStem: -18 36<219.03 342.924> 442 36<218.582 344.147> 671 36<341.157 395.497> 703 20G<480.5 487.5>
VStem: 36 108<119.91 336.71> 412 90<77.8103 383.5 414 654.499>
LayerCount: 2
Fore
SplineSet
273 -18 m 4,0,1
 180 -18 180 -18 108 51 c 132,-1,2
 36 120 36 120 36 230 c 4,3,4
 36 330 36 330 103 404 c 132,-1,5
 170 478 170 478 273 478 c 4,6,7
 312 478 312 478 344 465.5 c 132,-1,8
 376 453 376 453 412 414 c 5,9,-1
 412 617 l 6,10,11
 412 639 412 639 396 655 c 132,-1,12
 380 671 380 671 353 671 c 4,13,14
 345 671 345 671 340.5 676 c 132,-1,15
 336 681 336 681 336 689 c 132,-1,16
 336 697 336 697 341 702 c 132,-1,17
 346 707 346 707 353 707 c 4,18,19
 361 707 361 707 375 708 c 4,20,21
 386 708 386 708 419 712 c 4,22,23
 456 716 456 716 464 719 c 4,24,25
 477 723 477 723 484 723 c 132,-1,26
 491 723 491 723 496.5 718.5 c 132,-1,27
 502 714 502 714 502 705 c 6,28,-1
 502 109 l 6,29,30
 502 87 502 87 518 71 c 132,-1,31
 534 55 534 55 561 55 c 4,32,33
 570 55 570 55 574 50 c 132,-1,34
 578 45 578 45 578 37 c 4,35,36
 578 28 578 28 574 24 c 4,37,38
 569 19 569 19 563 18 c 4,39,40
 558 17 558 17 511 5 c 4,41,42
 465 -7 465 -7 460 -9 c 4,43,44
 452 -12 452 -12 443 -12 c 4,45,46
 435 -12 435 -12 431 -8 c 4,47,48
 426 -3 426 -3 424 6 c 4,49,50
 420 22 420 22 418 38 c 5,51,52
 348 -18 348 -18 273 -18 c 4,0,1
144 230 m 4,53,54
 144 131 144 131 181.5 74.5 c 132,-1,55
 219 18 219 18 278 18 c 4,56,57
 329 18 329 18 370.5 56 c 132,-1,58
 412 94 412 94 412 155 c 6,59,-1
 412 304 l 6,60,61
 412 366 412 366 371 404 c 132,-1,62
 330 442 330 442 278 442 c 4,63,64
 218 442 218 442 181 385 c 132,-1,65
 144 328 144 328 144 230 c 4,53,54
EndSplineSet
EndChar

StartChar: p
Encoding: 112 112 45
GlifName: p
Width: 614
VWidth: 0
Flags: W
HStem: -290 36<36.157 67 214.377 276.843> -18 36<269.853 395.418> 442 36<271.076 394.97>
VStem: 112 90<-238.612 46 76.5 382.19> 470 108<123.29 340.09>
LayerCount: 2
Fore
SplineSet
341 478 m 0,0,1
 434 478 434 478 506 409 c 128,-1,2
 578 340 578 340 578 230 c 0,3,4
 578 130 578 130 511 56 c 128,-1,5
 444 -18 444 -18 341 -18 c 0,6,7
 302 -18 302 -18 270 -5.5 c 128,-1,8
 238 7 238 7 202 46 c 1,9,-1
 202 -163 l 2,10,11
 202 -227 202 -227 214 -239 c 0,12,13
 226 -252 226 -252 246 -253 c 2,14,-1
 264 -254 l 2,15,16
 272 -254 272 -254 277 -259 c 128,-1,17
 282 -264 282 -264 282 -272 c 128,-1,18
 282 -280 282 -280 277 -285 c 128,-1,19
 272 -290 272 -290 264 -290 c 0,20,21
 255 -290 255 -290 228 -289 c 128,-1,22
 201 -288 201 -288 165 -288 c 2,23,-1
 148 -288 l 2,24,25
 112 -288 112 -288 85 -289 c 128,-1,26
 58 -290 58 -290 49 -290 c 0,27,28
 41 -290 41 -290 36 -285 c 128,-1,29
 31 -280 31 -280 31 -272 c 128,-1,30
 31 -264 31 -264 36 -259 c 128,-1,31
 41 -254 41 -254 49 -254 c 2,32,-1
 67 -253 l 2,33,34
 85 -252 85 -252 99 -239 c 0,35,36
 112 -227 112 -227 112 -163 c 2,37,-1
 112 359 l 2,38,39
 112 382 112 382 96 397 c 0,40,41
 80 413 80 413 53 413 c 0,42,43
 44 413 44 413 40 418 c 128,-1,44
 36 423 36 423 36 431 c 128,-1,45
 36 439 36 439 40 443.5 c 128,-1,46
 44 448 44 448 51 449 c 0,47,48
 89 454 89 454 128 468 c 0,49,50
 161 480 161 480 171 480 c 0,51,52
 179 480 179 480 183 476 c 0,53,54
 188 470 188 470 190 462 c 0,55,56
 195 442 195 442 196 422 c 1,57,58
 266 478 266 478 341 478 c 0,0,1
470 230 m 0,59,60
 470 329 470 329 432.5 385.5 c 128,-1,61
 395 442 395 442 336 442 c 0,62,63
 285 442 285 442 243.5 404 c 128,-1,64
 202 366 202 366 202 305 c 2,65,-1
 202 156 l 2,66,67
 202 94 202 94 243 56 c 128,-1,68
 284 18 284 18 336 18 c 0,69,70
 396 18 396 18 433 75 c 128,-1,71
 470 132 470 132 470 230 c 0,59,60
EndSplineSet
EndChar
